<svg width="19" height="17" viewBox="0 0 19 17" fill="none" xmlns="http://www.w3.org/2000/svg">
<path d="M13.5957 0C12.5911 0 11.6701 0.318342 10.8582 0.946202C10.0799 1.54814 9.56171 2.31481 9.25664 2.87231C8.95157 2.31477 8.43338 1.54814 7.65506 0.946202C6.84322 0.318342 5.92219 0 4.91759 0C2.11413 0 0 2.29308 0 5.33392C0 8.61909 2.63753 10.8667 6.63039 14.2694C7.30844 14.8472 8.07699 15.5022 8.87581 16.2008C8.98111 16.293 9.11634 16.3438 9.25664 16.3438C9.39693 16.3438 9.53217 16.293 9.63746 16.2008C10.4364 15.5022 11.2049 14.8472 11.8833 14.269C15.8757 10.8668 18.5133 8.61909 18.5133 5.33392C18.5133 2.29308 16.3991 0 13.5957 0Z" fill="#124570"/>
</svg>
