<svg width="19" height="17" viewBox="0 0 19 17" fill="none" xmlns="http://www.w3.org/2000/svg">
<path d="M8.73028 3.16032L9.25662 4.12222L9.78298 3.16033C10.0654 2.64417 10.5356 1.95423 11.2253 1.42082L10.8582 0.946202L11.2253 1.42082C11.9345 0.87235 12.727 0.6 13.5957 0.6C16.0228 0.6 17.9133 2.57761 17.9133 5.33392C17.9133 6.79193 17.3362 8.04408 16.2335 9.3747C15.1156 10.7237 13.5042 12.0994 11.4941 13.8124L11.4941 13.8124L11.4939 13.8126C10.8198 14.3871 10.0537 15.04 9.25666 15.7368C8.46035 15.0406 7.69475 14.3881 7.02141 13.8143L7.01957 13.8127L7.01956 13.8127C5.00928 12.0996 3.39783 10.7238 2.27985 9.37475C1.17707 8.04408 0.6 6.79193 0.6 5.33392C0.6 2.57761 2.49047 0.6 4.91759 0.6C5.78626 0.6 6.57881 0.87235 7.28799 1.42082L7.60945 1.00518L7.288 1.42082C7.97771 1.95424 8.44784 2.64414 8.73028 3.16032Z" stroke="#124570" stroke-width="1.2"/>
</svg>
