<svg width="40" height="38" viewBox="0 0 40 38" fill="none" xmlns="http://www.w3.org/2000/svg">
<rect width="40" height="38" rx="4" fill="#EEF3F9"/>
<path d="M26.179 17.2061V26.6784H14.7241V17.2061H13.4023V27.3393C13.4023 27.7043 13.6982 28.0001 14.0632 28.0001H26.8399C27.2051 28.0001 27.5007 27.7045 27.5007 27.3393V17.2061H26.179Z" fill="#124570" stroke="#124570" stroke-width="0.2"/>
<path d="M10.9334 18.9516L10.8588 19.0182L10.9254 19.0928L11.8054 20.079L11.872 20.1536L11.9466 20.087L20.4497 12.4985L28.9532 20.0871L29.0278 20.1537L29.0944 20.079L29.9742 19.0928L30.0407 19.0182L29.9662 18.9516L20.9565 10.9112C20.668 10.6534 20.2318 10.6535 19.9432 10.9111C19.9432 10.9111 19.9432 10.9111 19.9432 10.9111L10.9334 18.9516Z" fill="#124570" stroke="#124570" stroke-width="0.2"/>
</svg>
