<svg width="50" height="50" viewBox="0 0 50 50" fill="none" xmlns="http://www.w3.org/2000/svg">
<rect width="50" height="50" rx="4" fill="#EEF3F9"/>
<path d="M34.7571 36.7738V29.3142H36.4984V27.6188H33.0721V9.47852H14.5364V27.6188H11.1101V29.3142H12.8513V36.7738H9.42505V38.4691H38.1834V36.7738H34.7571ZM33.0721 36.7738H31.387V29.3142H33.0721V36.7738ZM28.0169 27.6188H24.6468V14.5646H28.0169V27.6188ZM22.9617 27.6188H19.5916V14.5646H22.9617V27.6188ZM19.5916 29.3142V36.7738H17.9065V29.3142H19.5916ZM21.2766 29.3142H22.9617V36.7738H21.2766V29.3142ZM24.6468 29.3142H26.3318V36.7738H24.6468V29.3142ZM28.0169 29.3142H29.7019V36.7738H28.0169V29.3142ZM16.2215 11.1739H31.387V27.6188H29.7019V12.8692H17.9065V27.6188H16.2215V11.1739ZM14.5364 29.3142H16.2215V36.7738H14.5364V29.3142Z" fill="#124570"/>
</svg>
