<svg width="40" height="38" viewBox="0 0 40 38" fill="none" xmlns="http://www.w3.org/2000/svg">
<rect width="40" height="38" rx="4" fill="#EEF3F9"/>
<g clip-path="url(#clip0)">
<path d="M23.3203 24.0074C23.2955 23.6509 22.9866 23.3821 22.6302 23.4069C22.2738 23.4316 22.0049 23.7406 22.0297 24.097L22.0729 24.7202C22.0976 25.0762 22.4061 25.3454 22.763 25.3207C23.1194 25.296 23.3883 24.987 23.3636 24.6306L23.3203 24.0074Z" fill="#124570"/>
<path d="M26.3854 22.4147C26.2411 22.0879 25.8592 21.9398 25.5324 22.084C25.2055 22.2282 25.0575 22.6101 25.2017 22.9369L25.4389 23.4746C25.583 23.8014 25.9649 23.9496 26.2918 23.8053C26.6187 23.6611 26.7668 23.2793 26.6225 22.9524L26.3854 22.4147Z" fill="#124570"/>
<path d="M29.3804 20.8528C29.1339 20.5943 28.7244 20.5845 28.4658 20.8311C28.2073 21.0776 28.1976 21.4871 28.4441 21.7456L28.8753 22.1977C29.1217 22.4562 29.5313 22.466 29.7898 22.2194C30.0484 21.9728 30.0581 21.5634 29.8115 21.3048L29.3804 20.8528Z" fill="#124570"/>
<path d="M22.5465 27.3494C22.1896 27.3668 21.9145 27.6702 21.9319 28.0271L21.9635 28.672C21.9809 29.0289 22.2844 29.304 22.6411 29.2866C22.9979 29.2691 23.2731 28.9657 23.2556 28.6089L23.2241 27.9639C23.2067 27.6071 22.9031 27.3322 22.5465 27.3494Z" fill="#124570"/>
<path d="M26.3058 26.4412C26.2043 26.0987 25.8443 25.9033 25.5018 26.0049C25.1592 26.1064 24.9639 26.4664 25.0654 26.809L25.2381 27.3916C25.3398 27.7346 25.7001 27.9294 26.0422 27.828C26.3847 27.7265 26.5801 27.3664 26.4785 27.0239L26.3058 26.4412Z" fill="#124570"/>
<path d="M29.3461 24.9203C29.1616 24.6144 28.764 24.5159 28.4581 24.7005C28.1522 24.8851 28.0538 25.2826 28.2383 25.5886L28.5522 26.1089C28.7367 26.4148 29.1343 26.5133 29.4403 26.3287C29.7462 26.1442 29.8446 25.7466 29.66 25.4407L29.3461 24.9203Z" fill="#124570"/>
<path d="M32.8126 23.8858L32.3574 23.4278C32.1057 23.1744 31.6961 23.173 31.4426 23.4248C31.1892 23.6766 31.1879 24.0862 31.4397 24.3396L31.8948 24.7977C32.1464 25.0509 32.556 25.0527 32.8096 24.8006C33.063 24.5488 33.0643 24.1392 32.8126 23.8858Z" fill="#124570"/>
<path d="M29.5609 16.5975L29.3651 16.1576C29.0414 15.4304 28.2731 15.0373 27.5217 15.155L27.4009 14.8836C26.6972 13.3032 25.039 12.433 23.3825 12.6979L22.9575 11.7324C21.9607 9.46775 19.7176 8.00439 17.2432 8.00439C13.8007 8.00439 11 10.8051 11 14.2476V29.3512C11 29.7084 11.2896 29.9981 11.6469 29.9981H14.2344C14.5916 29.9981 14.8812 29.7084 14.8812 29.3512V14.2476C14.8812 12.9452 15.9408 11.8856 17.2432 11.8856C18.1794 11.8856 19.028 12.4392 19.4051 13.296L19.8615 14.3326C18.6753 15.4082 18.2895 17.138 18.9586 18.6418L19.0796 18.9131C18.5003 19.383 18.2625 20.2116 18.5926 20.953L18.7884 21.3929C19.2164 22.3545 20.3435 22.7939 21.3132 22.3622L28.5916 19.1222C29.5549 18.6935 29.9898 17.5609 29.5609 16.5975ZM26.219 15.4098L26.3156 15.6268L20.2373 18.3326L20.1406 18.1155C19.5892 16.8765 20.1322 15.4216 21.3907 14.8605L22.9624 14.1604C24.239 13.5957 25.6724 14.1821 26.219 15.4098ZM17.2432 10.5919C15.2274 10.5919 13.5875 12.2318 13.5875 14.2476V28.7043H12.2937V14.2476C12.2937 11.5185 14.5141 9.29814 17.2432 9.29814C19.2049 9.29814 20.9832 10.4582 21.7735 12.2536L22.1488 13.1064L20.967 13.6329L20.5892 12.7748C20.0056 11.4487 18.6922 10.5919 17.2432 10.5919ZM28.0654 17.9404L20.787 21.1804C20.4746 21.3194 20.1093 21.1792 19.9703 20.8668L19.7745 20.4269C19.6775 20.2091 19.7753 19.9543 19.9932 19.8573C20.5504 19.6093 27.449 16.5384 27.6137 16.4651C27.831 16.3684 28.0865 16.4664 28.1833 16.6837L28.3791 17.1236C28.5177 17.4352 28.3771 17.8017 28.0654 17.9404Z" fill="#124570"/>
</g>
<defs>
<clipPath id="clip0">
<rect width="22" height="22" fill="white" transform="translate(11 8)"/>
</clipPath>
</defs>
</svg>
