<svg width="28" height="27" viewBox="0 0 28 27" fill="none" xmlns="http://www.w3.org/2000/svg">
<path d="M27.4417 15.6369C27.4417 13.78 26.291 12.1899 24.6712 11.5502V0.210938H3.43728V11.5503C1.81745 12.1899 0.666748 13.78 0.666748 15.6369V21.9087H1.40923V26.1265H26.7532V21.9087H27.4417V15.6369ZM18.545 11.0988H9.54993V6.373H18.545V11.0988ZM5.00613 1.79247H23.1023V11.0988H20.1139V4.79147H7.98108V11.0988H5.00613V1.79247ZM2.2356 15.6369C2.2356 14.0894 3.4845 12.8304 5.01962 12.8304H23.0888C24.6239 12.8304 25.8728 14.0894 25.8728 15.6369V20.3272H2.2356V15.6369ZM25.1843 24.545H2.97808V21.9087H25.1843V24.545Z" fill="#124570"/>
</svg>
