<svg width="22" height="22" viewBox="0 0 22 22" fill="none" xmlns="http://www.w3.org/2000/svg">
<path d="M18.7719 21.0832H3.22683C1.95211 21.0832 0.916016 20.0471 0.916016 18.7724V4.90783C0.916016 3.6331 1.95211 2.59717 3.22683 2.59717H18.7719C20.0466 2.59717 21.0827 3.6331 21.0827 4.90783V18.7724C21.0827 20.0471 20.0466 21.0832 18.7719 21.0832ZM3.22683 3.85758C2.64786 3.85758 2.17643 4.32886 2.17643 4.90783V18.7724C2.17643 19.3514 2.64786 19.8228 3.22683 19.8228H18.7719C19.3508 19.8228 19.8223 19.3514 19.8223 18.7724V4.90783C19.8223 4.32886 19.3508 3.85758 18.7719 3.85758H3.22683Z" fill="#124570" stroke="#124570" stroke-width="0.3"/>
<path d="M2.40495 9.36667H19.5924C19.9752 9.36667 20.3654 9.11113 20.3654 8.70833C20.3654 8.30554 19.9752 8.05 19.5924 8.05H2.40495C2.02219 8.05 1.63203 8.30554 1.63203 8.70833C1.63203 9.11113 2.02219 9.36667 2.40495 9.36667Z" fill="#124570" stroke="#124570" stroke-width="0.4"/>
<path d="M5.7474 5.95842C5.39952 5.95842 5.11719 5.67608 5.11719 5.32821V1.54696C5.11719 1.19908 5.39952 0.916748 5.7474 0.916748C6.09527 0.916748 6.3776 1.19908 6.3776 1.54696V5.32821C6.3776 5.67608 6.09527 5.95842 5.7474 5.95842Z" fill="#124570" stroke="#124570" stroke-width="0.3"/>
<path d="M16.2513 5.95842C15.9034 5.95842 15.6211 5.67608 15.6211 5.32821V1.54696C15.6211 1.19908 15.9034 0.916748 16.2513 0.916748C16.5992 0.916748 16.8815 1.19908 16.8815 1.54696V5.32821C16.8815 5.67608 16.5992 5.95842 16.2513 5.95842Z" fill="#124570" stroke="#124570" stroke-width="0.3"/>
</svg>
