<svg width="65" height="67" viewBox="0 0 65 67" fill="none" xmlns="http://www.w3.org/2000/svg">
<path d="M0 0H61C63.2091 0 65 1.79086 65 4V67H0V0Z" fill="#EEF3F9"/>
<path d="M40.5987 43.838H25.1832C23.9191 43.838 22.8916 42.8023 22.8916 41.5279V27.6678C22.8916 26.3935 23.9191 25.3579 25.1832 25.3579H40.5987C41.8628 25.3579 42.8903 26.3935 42.8903 27.6678V41.5279C42.8903 42.8023 41.8628 43.838 40.5987 43.838ZM25.1832 26.6179C24.609 26.6179 24.1415 27.089 24.1415 27.6678V41.5279C24.1415 42.1067 24.609 42.578 25.1832 42.578H40.5987C41.1728 42.578 41.6403 42.1067 41.6403 41.5279V27.6678C41.6403 27.089 41.1728 26.6179 40.5987 26.6179H25.1832Z" fill="#124570" stroke="#124570" stroke-width="0.3"/>
<path d="M24.3689 32.1252H41.4132C41.795 32.1252 42.1813 31.8684 42.1813 31.467C42.1813 31.0656 41.795 30.8088 41.4132 30.8088H24.3689C23.9872 30.8088 23.6008 31.0656 23.6008 31.467C23.6008 31.8684 23.9872 32.1252 24.3689 32.1252Z" fill="#124570" stroke="#124570" stroke-width="0.4"/>
<path d="M27.683 28.7178C27.3381 28.7178 27.0581 28.4355 27.0581 28.0878V24.3077C27.0581 23.96 27.3381 23.6777 27.683 23.6777C28.028 23.6777 28.308 23.96 28.308 24.3077V28.0878C28.308 28.4355 28.028 28.7178 27.683 28.7178Z" fill="#124570" stroke="#124570" stroke-width="0.3"/>
<path d="M38.0989 28.7178C37.7539 28.7178 37.4739 28.4355 37.4739 28.0878V24.3077C37.4739 23.96 37.7539 23.6777 38.0989 23.6777C38.4439 23.6777 38.7239 23.96 38.7239 24.3077V28.0878C38.7239 28.4355 38.4439 28.7178 38.0989 28.7178Z" fill="#124570" stroke="#124570" stroke-width="0.3"/>
</svg>
