<svg width="50" height="50" viewBox="0 0 50 50" fill="none" xmlns="http://www.w3.org/2000/svg">
<rect width="50" height="50" rx="4" fill="#EEF3F9"/>
<path d="M25 15C19.486 15 15 19.486 15 25C15 30.514 19.486 35 25 35C30.514 35 35 30.514 35 25C35 19.486 30.514 15 25 15ZM25 32.8722C20.6593 32.8722 17.1276 29.3409 17.1276 25C17.1276 20.6591 20.6593 17.1278 25 17.1278C29.3407 17.1278 32.8724 20.6591 32.8724 25C32.8724 29.3409 29.3407 32.8722 25 32.8722Z" fill="#124570"/>
<path d="M30.2116 24.6912H25.7176V19.2877C25.7176 18.833 25.3489 18.4644 24.8942 18.4644C24.4395 18.4644 24.0708 18.833 24.0708 19.2877V25.5146C24.0708 25.9693 24.4395 26.338 24.8942 26.338H30.2116C30.6663 26.338 31.035 25.9693 31.035 25.5146C31.035 25.0599 30.6663 24.6912 30.2116 24.6912Z" fill="#124570"/>
</svg>
