<svg width="36" height="28" viewBox="0 0 36 28" fill="none" xmlns="http://www.w3.org/2000/svg">
<path d="M35.2498 14.7185C35.2498 12.8538 34.0771 11.2603 32.4364 10.6472V0.631836H3.35498V10.6472C1.7142 11.2603 0.541504 12.8539 0.541504 14.7185V23.0772H1.50656V27.707H34.2847V23.0772H35.2498V14.7185ZM5.38867 2.68196H30.4026V10.3782H28.3689V4.73216H17.8957H7.42243V10.3782H5.38874V2.68196H5.38867ZM16.8788 10.3781H9.45612V6.78221H16.8788V10.3781ZM18.9125 6.78221H26.3353V10.3781H18.9125V6.78221ZM2.5752 14.7185C2.5752 13.4557 3.59435 12.4283 4.8471 12.4283H30.9443C32.197 12.4283 33.2162 13.4556 33.2162 14.7185V21.0271H2.5752V14.7185ZM32.2511 25.6569H3.54025V23.0772H32.251V25.6569H32.2511Z" fill="#124570"/>
</svg>
