<svg width="23" height="23" viewBox="0 0 23 23" fill="none" xmlns="http://www.w3.org/2000/svg">
<path d="M11.2 0C4.98909 0 0 4.98909 0 11.2C0 17.4109 4.98909 22.4 11.2 22.4C17.4109 22.4 22.4 17.4109 22.4 11.2C22.4 4.98909 17.4109 0 11.2 0ZM12.8291 11.4036L16.6473 15.2218C16.7491 15.3236 16.8 15.4764 16.8 15.5782C16.8 15.68 16.7491 15.8327 16.6473 15.9345L15.9345 16.6473C15.8327 16.7491 15.68 16.8 15.5782 16.8C15.4255 16.8 15.3236 16.7491 15.2218 16.6473L11.4036 12.8291C11.3018 12.7273 11.1491 12.7273 11.0473 12.8291L7.22909 16.6473C7.12727 16.7491 6.97455 16.8 6.87273 16.8C6.72 16.8 6.61818 16.7491 6.51636 16.6473L5.80364 15.9345C5.70182 15.8327 5.65091 15.68 5.65091 15.5782C5.65091 15.4764 5.70182 15.3236 5.80364 15.2218L9.62182 11.4036C9.72364 11.3018 9.72364 11.1491 9.62182 11.0473L5.80364 7.22909C5.70182 7.12727 5.65091 6.97455 5.65091 6.87273C5.65091 6.77091 5.70182 6.61818 5.80364 6.51636L6.51636 5.80364C6.61818 5.70182 6.77091 5.65091 6.87273 5.65091C6.97455 5.65091 7.12727 5.70182 7.22909 5.80364L11.0473 9.62182C11.1491 9.72364 11.3018 9.72364 11.4036 9.62182L15.2218 5.80364C15.3236 5.70182 15.4764 5.65091 15.5782 5.65091C15.7309 5.65091 15.8327 5.70182 15.9345 5.80364L16.6473 6.51636C16.7491 6.61818 16.8 6.77091 16.8 6.87273C16.8 6.97455 16.7491 7.12727 16.6473 7.22909L12.8291 11.0473C12.7273 11.0982 12.7273 11.3018 12.8291 11.4036Z" fill="#FF3535"/>
</svg>
