<svg width="34" height="33" viewBox="0 0 34 33" fill="none" xmlns="http://www.w3.org/2000/svg">
<path d="M34.2222 16.6667C34.2222 7.46192 26.5613 0 17.1111 0C7.6609 0 0 7.46192 0 16.6667C0 24.9855 6.25728 31.8806 14.4375 33.1309V21.4844H10.0929V16.6667H14.4375V12.9948C14.4375 8.8177 16.9921 6.51043 20.9006 6.51043C22.7727 6.51043 24.7309 6.83594 24.7309 6.83594V10.9375H22.5732C20.4476 10.9375 19.7847 12.2222 19.7847 13.5403V16.6667H24.5304L23.7718 21.4844H19.7847V33.1309C27.965 31.8806 34.2222 24.9855 34.2222 16.6667" fill="#1877F2"/>
<path d="M23.7726 21.4847L24.5312 16.667H19.7856V13.5406C19.7856 12.2226 20.4485 10.9378 22.5741 10.9378H24.7318V6.83626C24.7318 6.83626 22.7736 6.51074 20.9015 6.51074C16.9929 6.51074 14.4384 8.81802 14.4384 12.9951V16.667H10.0938V21.4847H14.4384V33.1312C15.3228 33.2662 16.2167 33.3339 17.112 33.3336C18.0215 33.3336 18.9144 33.2643 19.7856 33.1312V21.4847H23.7726Z" fill="white"/>
</svg>
