<svg width="19" height="17" viewBox="0 0 19 17" xmlns="http://www.w3.org/2000/svg">
<path d="M8.80841 3.61344L9.33475 4.57535L9.86111 3.61346C10.1436 3.0973 10.6137 2.40736 11.3034 1.87395L10.9363 1.39933L11.3034 1.87395C12.0126 1.32548 12.8051 1.05313 13.6738 1.05313C16.1009 1.05313 17.9914 3.03074 17.9914 5.78705C17.9914 7.24506 17.4143 8.49721 16.3116 9.82783C15.1937 11.1768 13.5823 12.5526 11.5723 14.2655L11.5723 14.2655L11.572 14.2657C10.8979 14.8402 10.1318 15.4931 9.33478 16.1899C8.53828 15.4936 7.77251 14.841 7.09906 14.267L7.0977 14.2659L7.09768 14.2658C5.08741 12.5527 3.47596 11.1769 2.35797 9.82787C1.25519 8.4972 0.678125 7.24505 0.678125 5.78705C0.678125 3.03074 2.5686 1.05313 4.99571 1.05313C5.86439 1.05313 6.65694 1.32548 7.36612 1.87395L7.68757 1.4583L7.36612 1.87395C8.05584 2.40736 8.52597 3.09727 8.80841 3.61344Z" stroke-width="1.2"/>
</svg>
