<svg width="50" height="50" viewBox="0 0 50 50" fill="none" xmlns="http://www.w3.org/2000/svg">
<rect width="50" height="50" rx="4" fill="#EEF3F9"/>
<g clip-path="url(#clip0)">
<path d="M35.5816 11.6094H14.5767C12.9857 11.6094 11.6917 12.9061 11.6917 14.4999V35.5471C11.6917 37.1412 12.9857 38.4379 14.5767 38.4379H35.5816C37.1726 38.4379 38.4666 37.1412 38.4666 35.5471V14.4999C38.4666 12.9061 37.1726 11.6094 35.5816 11.6094ZM14.5767 13.1814H35.5816C36.3074 13.1814 36.8978 13.7729 36.8978 14.4999V18.3443H13.2605V14.4999C13.2605 13.7729 13.8509 13.1814 14.5767 13.1814ZM35.5816 36.8659H14.5767C13.8509 36.8659 13.2605 36.2743 13.2605 35.5471V19.9163H36.8978V35.5471C36.8978 36.2743 36.3074 36.8659 35.5816 36.8659Z" fill="#124570"/>
<path d="M17.5176 16.549C17.7243 16.549 17.9261 16.4653 18.0726 16.3186C18.2185 16.1722 18.302 15.9696 18.302 15.763C18.302 15.5561 18.2185 15.3533 18.0726 15.2071C17.9261 15.061 17.7243 14.9771 17.5176 14.9771C17.3111 14.9771 17.1086 15.061 16.9628 15.2071C16.8169 15.3533 16.7332 15.5561 16.7332 15.763C16.7332 15.97 16.8169 16.1722 16.9628 16.3186C17.1092 16.4653 17.3111 16.549 17.5176 16.549Z" fill="#124570"/>
<path d="M22.5593 16.549C22.7658 16.549 22.9677 16.4653 23.1141 16.3186C23.26 16.1722 23.3437 15.9696 23.3437 15.763C23.3437 15.5561 23.26 15.3533 23.1141 15.2071C22.9677 15.061 22.7658 14.9771 22.5593 14.9771C22.3528 14.9771 22.1504 15.061 22.0045 15.2071C21.8585 15.3533 21.7749 15.5561 21.7749 15.763C21.7749 15.97 21.8585 16.1722 22.0045 16.3186C22.1508 16.4653 22.3528 16.549 22.5593 16.549Z" fill="#124570"/>
<path d="M27.5991 16.549C27.8056 16.549 28.0077 16.4653 28.1539 16.3186C28.2998 16.1722 28.3835 15.9696 28.3835 15.763C28.3835 15.5561 28.2998 15.3533 28.1539 15.2071C28.0081 15.061 27.8056 14.9771 27.5991 14.9771C27.3926 14.9771 27.1902 15.061 27.0443 15.2071C26.8985 15.3533 26.8147 15.5561 26.8147 15.763C26.8147 15.97 26.8985 16.1722 27.0443 16.3186C27.1908 16.4653 27.3926 16.549 27.5991 16.549Z" fill="#124570"/>
<path d="M32.6409 16.549C32.8474 16.549 33.0492 16.4647 33.1957 16.3186C33.3415 16.1722 33.4253 15.9696 33.4253 15.763C33.4253 15.5561 33.3415 15.3533 33.1957 15.2071C33.0492 15.061 32.8474 14.9771 32.6409 14.9771C32.4341 14.9771 32.2319 15.061 32.0861 15.2071C31.94 15.3533 31.8564 15.5561 31.8564 15.763C31.8564 15.97 31.94 16.1722 32.0861 16.3186C32.2323 16.4647 32.4341 16.549 32.6409 16.549Z" fill="#124570"/>
<path d="M34.3213 21.7119H15.8367C15.4036 21.7119 15.0522 22.0638 15.0522 22.4979V34.2843C15.0522 34.7182 15.4036 35.0703 15.8367 35.0703H34.3213C34.7546 35.0703 35.1057 34.7182 35.1057 34.2843V22.4979C35.1057 22.0638 34.7546 21.7119 34.3213 21.7119ZM33.5369 33.4981H16.6211V23.2839H33.5369V33.4981Z" fill="#124570"/>
<path d="M19.197 26.6516H30.9601C31.3932 26.6516 31.7445 26.2997 31.7445 25.8656C31.7445 25.4314 31.3932 25.0796 30.9601 25.0796H19.197C18.764 25.0796 18.4126 25.4314 18.4126 25.8656C18.4126 26.2997 18.764 26.6516 19.197 26.6516Z" fill="#124570"/>
</g>
<defs>
<clipPath id="clip0">
<rect width="26.775" height="26.8285" fill="white" transform="translate(11.6917 11.6094)"/>
</clipPath>
</defs>
</svg>
