<svg width="26" height="26" viewBox="0 0 26 26" fill="none" xmlns="http://www.w3.org/2000/svg">
<path d="M21.6303 4.5206C19.6454 1.6479 16.4996 0 13.0002 0C9.50086 0 6.35511 1.6479 4.37022 4.5206C2.39509 7.37877 1.93902 10.9973 3.14782 14.1942C3.47114 15.0673 3.9851 15.9155 4.67176 16.7103L12.3081 25.68C12.4809 25.883 12.7339 26 13.0002 26C13.2666 26 13.5196 25.8831 13.6923 25.68L21.3266 16.7127C22.0163 15.9133 22.5296 15.066 22.8502 14.2C24.0615 10.9973 23.6054 7.37877 21.6303 4.5206ZM21.1478 13.5633C20.9006 14.2315 20.4969 14.8921 19.9487 15.5275C19.9472 15.5291 19.9457 15.5306 19.9445 15.5324L13.0002 23.6888L6.05174 15.5273C5.50386 14.8924 5.1002 14.2319 4.85051 13.5573C3.85083 10.9133 4.23022 7.92152 5.86568 5.55455C7.50627 3.18002 10.1069 1.81817 13.0002 1.81817C15.8936 1.81817 18.4939 3.17997 20.1345 5.55455C21.7703 7.92152 22.15 10.9133 21.1478 13.5633Z" fill="#124570"/>
<path d="M13.0011 5.3938C10.1941 5.3938 7.91016 7.67743 7.91016 10.4847C7.91016 13.292 10.1938 15.5756 13.0011 15.5756C15.8084 15.5756 18.092 13.292 18.092 10.4847C18.092 7.67774 15.8081 5.3938 13.0011 5.3938ZM13.0011 13.7574C11.1965 13.7574 9.72833 12.2892 9.72833 10.4847C9.72833 8.68011 11.1965 7.21192 13.0011 7.21192C14.8056 7.21192 16.2738 8.68011 16.2738 10.4847C16.2738 12.2892 14.8056 13.7574 13.0011 13.7574Z" fill="#124570"/>
</svg>
