<svg width="19" height="19" viewBox="0 0 19 19" fill="none" xmlns="http://www.w3.org/2000/svg">
<g clip-path="url(#clip0)">
<path d="M18.9407 7.10466C18.7825 6.86741 15.461 1.17334 9.52965 1.17334C3.59832 1.17334 0.276817 6.86741 0.118636 7.10466C-0.0395453 7.34192 -0.0395453 7.65824 0.118636 7.8955C0.276817 8.13275 3.59836 13.8268 9.52968 13.8268C15.461 13.8268 18.7826 8.13275 18.9407 7.8955C19.0198 7.65824 19.0198 7.34192 18.9407 7.10466ZM9.52968 11.4543C7.3153 11.4543 5.57545 9.71445 5.57545 7.5001C5.57545 5.28575 7.3153 3.54587 9.52968 3.54587C11.7441 3.54587 13.4839 5.28571 13.4839 7.5001C13.4839 9.71448 11.744 11.4543 9.52968 11.4543Z" fill="#124570"/>
<path d="M9.53074 5.12744C8.18629 5.12744 7.1582 6.15553 7.1582 7.49997C7.1582 8.84442 8.18629 9.8725 9.53074 9.8725C10.8752 9.8725 11.9033 8.84442 11.9033 7.49997C11.9033 6.15553 10.8752 5.12744 9.53074 5.12744ZM10.3216 7.49997C9.84707 7.49997 9.53074 7.18365 9.53074 6.70914C9.53074 6.23464 9.84707 5.91831 10.3216 5.91831C10.7961 5.91831 11.1124 6.23464 11.1124 6.70914C11.1124 7.18361 10.7961 7.49997 10.3216 7.49997Z" fill="#124570"/>
</g>
<defs>
<clipPath id="clip0">
<rect width="19" height="19" fill="white"/>
</clipPath>
</defs>
</svg>
