<svg width="40" height="38" viewBox="0 0 40 38" fill="none" xmlns="http://www.w3.org/2000/svg">
<rect width="40" height="38" rx="4" fill="#EEF3F9"/>
<path d="M29.9939 18.6659C29.985 18.3943 29.7904 18.1645 29.5241 18.1107C29.2576 18.057 28.9893 18.1936 28.8758 18.4405C28.3815 19.5163 27.5951 20.4285 26.6015 21.0783C25.5827 21.7447 24.3976 22.0969 23.1743 22.0969C19.7164 22.0969 16.9031 19.2836 16.9031 15.8257C16.9031 14.6024 17.2554 13.4173 17.9217 12.3985C18.5715 11.4049 19.4836 10.6185 20.5595 10.1242C20.8064 10.0107 20.9429 9.74234 20.8892 9.47594C20.8355 9.20953 20.6057 9.01504 20.3341 9.00613C20.207 9.00195 20.1009 9 20 9C17.3289 9 14.8177 10.0402 12.9289 11.9289C11.0402 13.8177 10 16.3289 10 19C10 21.6711 11.0402 24.1823 12.9289 26.0711C14.8177 27.9598 17.3289 29 20 29C22.6711 29 25.1823 27.9598 27.0711 26.0711C28.9598 24.1823 30 21.6711 30 19C30 18.8995 29.998 18.7933 29.9939 18.6659ZM26.2424 25.2424C24.575 26.9098 22.3581 27.8281 20 27.8281C17.6419 27.8281 15.425 26.9098 13.7576 25.2424C12.0902 23.575 11.1719 21.3581 11.1719 19C11.1719 16.6419 12.0902 14.425 13.7576 12.7576C14.9692 11.546 16.4707 10.73 18.1059 10.3743C17.6657 10.7839 17.2741 11.2475 16.9409 11.757C16.1495 12.967 15.7312 14.3739 15.7312 15.8256C15.7312 19.9298 19.0702 23.2687 23.1743 23.2687C24.6261 23.2687 26.033 22.8504 27.243 22.059C27.7525 21.7258 28.2161 21.3343 28.6257 20.8941C28.27 22.5293 27.454 24.0309 26.2424 25.2424Z" fill="#124570" stroke="#124570" stroke-width="0.3"/>
<path d="M20.365 13.7667C20.3046 13.9812 20.371 14.2113 20.5365 14.3606L21.7194 15.4278L21.4394 17.1852C21.4044 17.4047 21.4967 17.6251 21.6776 17.7543C21.8585 17.8835 22.0969 17.8991 22.2932 17.7947L23.7803 17.0038L25.2673 17.7947C25.3537 17.8407 25.4482 17.8634 25.5424 17.8634C25.6622 17.8634 25.7816 17.8267 25.8829 17.7543C26.0638 17.6251 26.156 17.4047 26.1211 17.1852L25.8411 15.4278L27.024 14.3606C27.1894 14.2113 27.2559 13.9811 27.1955 13.7666C27.1351 13.5521 26.9582 13.3905 26.7392 13.3496L25.1663 13.0556L24.2853 11.5571C24.1801 11.378 23.9879 11.2681 23.7802 11.2681C23.5725 11.2681 23.3803 11.378 23.2751 11.5571L22.3942 13.0556L20.8213 13.3496C20.6023 13.3905 20.4254 13.5522 20.365 13.7667ZM22.8717 14.1585C23.0384 14.1274 23.1833 14.0256 23.2692 13.8795L23.7802 13.0102L24.2912 13.8795C24.3771 14.0256 24.5221 14.1274 24.6887 14.1585L25.3596 14.2839L24.8199 14.7708C24.6726 14.9037 24.6025 15.1021 24.6337 15.2981L24.7786 16.2075L24.0554 15.8228C23.9694 15.7771 23.8748 15.7542 23.7802 15.7542C23.6857 15.7542 23.5911 15.7771 23.5051 15.8228L22.7818 16.2075L22.9267 15.2981C22.9579 15.1021 22.8879 14.9037 22.7406 14.7708L22.2008 14.2839L22.8717 14.1585Z" fill="#124570" stroke="#124570" stroke-width="0.3"/>
</svg>
