<svg width="50" height="50" viewBox="0 0 50 50" fill="none" xmlns="http://www.w3.org/2000/svg">
<rect width="50" height="50" rx="4" fill="#F4F4F4"/>
<path d="M20.5848 16.1519L19.352 17.3695L20.434 18.4382L11.8457 34.714L15.38 38.2049L31.8578 29.722L32.9398 30.7907L34.1725 29.573L20.5848 16.1519ZM26.1919 24.1255H19.3989L21.7263 19.7147L26.1919 24.1255ZM15.5204 31.4757H24.6791L15.7083 36.0939L13.9828 34.3896L15.5204 31.4757ZM28.0241 29.7537H16.429L18.4902 25.8475H27.9353L30.5654 28.4454L28.0241 29.7537Z" fill="#969595"/>
<path d="M28.3703 17.3698C28.7343 17.5736 29.1382 17.7227 29.5791 17.8163C29.1813 18.8301 28.5472 19.7547 27.7319 20.4827L28.9011 21.7601C30.0577 20.7272 30.922 19.3768 31.3927 17.907C34.5872 17.6277 37.4739 15.255 38.3081 12.1902L36.6245 11.7432C36.306 12.9133 35.5695 14.0084 34.5507 14.8268C33.7228 15.4918 32.752 15.9393 31.76 16.121C31.851 15.1433 31.7277 14.3455 31.3836 13.6837C30.8707 12.6973 29.8498 12.1008 28.8428 12.1998C27.6209 12.3199 26.6497 13.4606 26.6778 14.7428C26.7009 15.7915 27.3494 16.7981 28.3703 17.3698ZM29.0153 13.9134C29.0306 13.9119 29.0461 13.9111 29.0617 13.9111C29.3387 13.9111 29.6626 14.1432 29.8328 14.4704C30.026 14.8419 30.0043 15.3441 30.0043 16.1449C29.7133 16.0887 29.4546 15.9975 29.2302 15.8718C28.7556 15.606 28.4303 15.1373 28.4208 14.7055C28.4127 14.336 28.7072 13.9437 29.0153 13.9134Z" fill="#969595"/>
<path d="M38.5318 22.658C36.1998 21.4397 33.1477 21.8869 31.2742 23.7214L32.5016 24.9443C33.826 23.6474 36.0681 23.319 37.7166 24.1803L38.5318 22.658Z" fill="#969595"/>
<path d="M37.2522 27.3027H38.9956V29.0248H37.2522V27.3027Z" fill="#969595"/>
<path d="M31.1355 8.85767H32.8789V10.579H31.1355V8.85767Z" fill="#969595"/>
<path d="M37.7012 17.6868L40.379 16.6372L41.0221 18.2383L38.3443 19.2879L37.7012 17.6868Z" fill="#969595"/>
<path d="M22.7083 10.9246H24.4516V13.5268H22.7083V10.9246Z" fill="#969595"/>
<line y1="-0.5" x2="47.7548" y2="0.563665" transform="matrix(0.653018 0.757343 -0.766488 0.642259 10.0535 9.00781)" stroke="#969595"/>
<line y1="-0.5" x2="47.7548" y2="0.563665" transform="matrix(0.653018 0.757343 -0.766488 0.642259 10.0535 9.00781)" stroke="#969595"/>
</svg>
