<svg width="50" height="50" viewBox="0 0 50 50" fill="none" xmlns="http://www.w3.org/2000/svg">
<rect width="50" height="50" rx="4" fill="#F4F4F4"/>
<path d="M37.2383 26.5703H12.7617C12.341 26.5703 12 26.9114 12 27.332V30.3789C12 30.7996 12.341 31.1406 12.7617 31.1406H37.2383C37.659 31.1406 38 30.7996 38 30.3789V27.332C38 26.9114 37.659 26.5703 37.2383 26.5703ZM33.4297 28.0938V29.6172H19.668V28.0938H33.4297ZM13.5234 28.0938H18.1445V29.6172H13.5234V28.0938ZM36.4766 29.6172H34.9531V28.0938H36.4766V29.6172Z" fill="#969595"/>
<path d="M26.5742 17.4297H24.2383C22.5582 17.4297 21.1914 18.7965 21.1914 20.4766C21.1914 22.1566 22.5582 23.5234 24.2383 23.5234H32.668C33.088 23.5234 33.4297 23.865 33.4297 24.2849C33.4297 24.7056 33.7707 25.0467 34.1914 25.0467C34.6121 25.0467 34.9531 24.7056 34.9531 24.2849C34.9531 23.025 33.928 22 32.668 22H24.2383C23.3983 22 22.7148 21.3166 22.7148 20.4766C22.7148 19.6365 23.3983 18.9531 24.2383 18.9531H26.5742C27.8343 18.9531 28.8594 17.928 28.8594 16.668C28.8594 15.4079 27.8343 14.3828 26.5742 14.3828H25C24.58 14.3828 24.2383 14.0411 24.2383 13.6211C24.2383 13.2004 23.8972 12.8594 23.4766 12.8594C23.0559 12.8594 22.7148 13.2004 22.7148 13.6211C22.7148 14.8811 23.74 15.9062 25 15.9062H26.5742C26.9942 15.9062 27.3359 16.248 27.3359 16.668C27.3359 17.088 26.9942 17.4297 26.5742 17.4297Z" fill="#969595"/>
<path d="M34.1914 18.9531C32.9314 18.9531 31.9062 17.928 31.9062 16.668C31.9062 16.2473 31.5652 15.9062 31.1445 15.9062C30.7239 15.9062 30.3828 16.2473 30.3828 16.668C30.3828 18.768 32.0913 20.4766 34.1914 20.4766C35.4514 20.4766 36.4766 21.5017 36.4766 22.7617V24.2852C36.4766 24.7058 36.8176 25.0469 37.2383 25.0469C37.659 25.0469 38 24.7058 38 24.2852V22.7617C38 20.6617 36.2915 18.9531 34.1914 18.9531Z" fill="#969595"/>
<line x1="9.38097" y1="9.67618" x2="37.7632" y2="44.6111" stroke="#969595"/>
<line x1="9.38097" y1="9.67618" x2="37.7632" y2="44.6111" stroke="#969595"/>
</svg>
