<svg width="28" height="29" viewBox="0 0 28 29" xmlns="http://www.w3.org/2000/svg">
<path d="M8.2359 7.43555L7.07413 8.59029L8.09378 9.60377L0 25.039L3.33076 28.3496L18.8599 20.3048L19.8796 21.3183L21.0413 20.1636L8.2359 7.43555ZM13.5202 14.9974H7.11827L9.31174 10.8144L13.5202 14.9974ZM3.46307 21.968H12.0945L3.64019 26.3477L2.01405 24.7314L3.46307 21.968ZM15.2469 20.3349H4.31941L6.26193 16.6305H15.1632L17.6419 19.0942L15.2469 20.3349Z" />
<path d="M15.574 8.59087C15.9172 8.78422 16.2977 8.92559 16.7133 9.01437C16.3384 9.97574 15.7408 10.8526 14.9724 11.5431L16.0743 12.7544C17.1643 11.7749 17.9788 10.4943 18.4225 9.10032C21.433 8.83544 24.1535 6.58534 24.9396 3.67887L23.353 3.25488C23.0528 4.36458 22.3588 5.40314 21.3986 6.17926C20.6184 6.80994 19.7035 7.23431 18.7686 7.40665C18.8544 6.47936 18.7382 5.72278 18.4139 5.09515C17.9305 4.15969 16.9684 3.59401 16.0194 3.68796C14.8678 3.80179 13.9526 4.88361 13.9791 6.09963C14.0008 7.09409 14.612 8.0487 15.574 8.59087ZM16.182 5.31299C16.1964 5.31158 16.2109 5.31087 16.2257 5.31087C16.4867 5.31087 16.792 5.53095 16.9524 5.84128C17.1345 6.19352 17.114 6.66983 17.114 7.42924C16.8398 7.37595 16.5959 7.28951 16.3845 7.1703C15.9372 6.91821 15.6307 6.4737 15.6217 6.06419C15.6141 5.71379 15.8916 5.34173 16.182 5.31299Z" />
<path d="M25.1503 13.6064C22.9526 12.451 20.0762 12.8751 18.3105 14.6149L19.4673 15.7747C20.7154 14.5447 22.8284 14.2332 24.382 15.05L25.1503 13.6064Z" />
<path d="M23.9434 18.0107H25.5864V19.6438H23.9434V18.0107Z" />
<path d="M18.1797 0.518555H19.8227V2.15112H18.1797V0.518555Z" />
<path d="M24.3672 8.8916L26.8908 7.89631L27.4969 9.41462L24.9733 10.4099L24.3672 8.8916Z"/>
<path d="M10.2363 2.47852H11.8793V4.94629H10.2363V2.47852Z" />
</svg>
