<svg  width="34" height="30" viewBox="0 0 34 30" fill="none" xmlns="http://www.w3.org/2000/svg">
    <g filter="url(#filter0_d)">
        <g clip-path="url(#clip0)">
        <path d="M27.2917 4.3335H6.70832C5.2155 4.3335 4 5.549 4 7.04186V18.9586C4 20.4514 5.2155 21.6669 6.70832 21.6669H27.2916C28.7844 21.6669 29.9999 20.4514 29.9999 18.9586V7.04186C30 5.549 28.7845 4.3335 27.2917 4.3335ZM28.9167 18.9585C28.9167 19.8544 28.1876 20.5835 27.2917 20.5835H6.70832C5.81238 20.5835 5.08332 19.8544 5.08332 18.9585V7.04186C5.08332 6.14593 5.81238 5.41686 6.70832 5.41686H27.2916C28.1876 5.41686 28.9166 6.14593 28.9166 7.04186V18.9585H28.9167Z" fill="#124570"/>
        <path d="M29.4583 7.5835H4.54168C4.24268 7.5835 4 7.82618 4 8.12518V11.3752C4 11.6742 4.24268 11.9169 4.54168 11.9169H29.4584C29.7574 11.9169 30 11.6742 30 11.3752V8.12518C30 7.82618 29.7573 7.5835 29.4583 7.5835ZM28.9167 10.8335H5.08332V8.66681H28.9166V10.8335H28.9167Z" fill="#124570"/>
        <path d="M14.2917 15.1665H7.79168C7.49268 15.1665 7.25 15.4092 7.25 15.7082C7.25 16.0072 7.49268 16.2498 7.79168 16.2498H14.2917C14.5907 16.2498 14.8334 16.0071 14.8334 15.7081C14.8334 15.4091 14.5907 15.1665 14.2917 15.1665Z" fill="#124570"/>
        <path d="M14.2917 17.3335H7.79168C7.49268 17.3335 7.25 17.5762 7.25 17.8752C7.25 18.1742 7.49268 18.4169 7.79168 18.4169H14.2917C14.5907 18.4169 14.8334 18.1742 14.8334 17.8752C14.8333 17.5762 14.5907 17.3335 14.2917 17.3335Z" fill="#124570"/>
        <path d="M25.1263 14.0835H24.043C23.147 14.0835 22.418 14.8126 22.418 15.7085V16.7918C22.418 17.6877 23.147 18.4168 24.043 18.4168H25.1263C26.0222 18.4168 26.7513 17.6877 26.7513 16.7918V15.7085C26.7513 14.8126 26.0222 14.0835 25.1263 14.0835ZM25.668 16.7919C25.668 17.0909 25.4253 17.3335 25.1263 17.3335H24.043C23.744 17.3335 23.5013 17.0909 23.5013 16.7919V15.7085C23.5013 15.4095 23.744 15.1669 24.043 15.1669H25.1263C25.4253 15.1669 25.668 15.4095 25.668 15.7085V16.7919Z" fill="#124570"/>
        </g>
    </g>
    <defs>
        <filter id="filter0_d" x="0" y="0" width="34" height="34" filterUnits="userSpaceOnUse" color-interpolation-filters="sRGB">
            <feFlood flood-opacity="0" result="BackgroundImageFix"/>
            <feColorMatrix in="SourceAlpha" type="matrix" values="0 0 0 0 0 0 0 0 0 0 0 0 0 0 0 0 0 0 127 0"/>
            <feOffset dy="4"/>
            <feGaussianBlur stdDeviation="2"/>
            <feColorMatrix type="matrix" values="0 0 0 0 0 0 0 0 0 0 0 0 0 0 0 0 0 0 0.1 0"/>
            <feBlend mode="normal" in2="BackgroundImageFix" result="effect1_dropShadow"/>
            <feBlend mode="normal" in="SourceGraphic" in2="effect1_dropShadow" result="shape"/>
        </filter>
        <clipPath id="clip0">
            <rect x="4" width="26" height="26" fill="white"/>
        </clipPath>
    </defs>
</svg>
