<svg width="20" height="24" viewBox="0 0 20 24" fill="none" xmlns="http://www.w3.org/2000/svg">
<path d="M10 11C11.3738 11 12.5632 10.5073 13.5353 9.53511C14.5071 8.56312 15 7.37382 15 5.99984C15 4.62634 14.5073 3.43688 13.5352 2.46457C12.563 1.49273 11.3736 1 10 1C8.62607 1 7.43681 1.49273 6.46484 2.46473C5.49287 3.43673 5 4.62618 5 5.99984C5 7.37382 5.49287 8.56327 6.46484 9.53527C7.43712 10.5071 8.62654 11 10 11ZM7.32515 3.32491C8.07095 2.57908 8.94583 2.21654 10 2.21654C11.054 2.21654 11.929 2.57908 12.675 3.32491C13.4208 4.07089 13.7835 4.94596 13.7835 5.99984C13.7835 7.05404 13.4208 7.92895 12.675 8.67493C11.929 9.42092 11.054 9.78346 10 9.78346C8.94615 9.78346 8.07127 9.42076 7.32515 8.67493C6.57919 7.92911 6.2165 7.05404 6.2165 5.99984C6.2165 4.94596 6.57919 4.07089 7.32515 3.32491Z" fill="#124570" stroke="#124570" stroke-width="0.2"/>
<path d="M18.9564 17.6368C18.9272 17.1844 18.8683 16.6911 18.7816 16.17C18.694 15.6451 18.5812 15.1489 18.4463 14.6953C18.3067 14.2266 18.1172 13.7636 17.8827 13.32C17.6396 12.8595 17.3538 12.4586 17.0332 12.1286C16.6979 11.7835 16.2873 11.506 15.8126 11.3035C15.3396 11.1022 14.8153 11.0002 14.2545 11.0002C14.0343 11.0002 13.8213 11.0974 13.4099 11.3855C13.1568 11.5632 12.8606 11.7686 12.5301 11.9958C12.2475 12.1896 11.8646 12.3711 11.3917 12.5354C10.9303 12.6961 10.4619 12.7775 9.99934 12.7775C9.53714 12.7775 9.06868 12.6961 8.60696 12.5354C8.13455 12.3713 7.75152 12.1897 7.46939 11.996C7.142 11.7709 6.84571 11.5655 6.58877 11.3854C6.17775 11.0972 5.96476 11 5.74452 11C5.18355 11 4.65945 11.1022 4.18655 11.3037C3.71216 11.5058 3.30148 11.7833 2.96585 12.1288C2.64521 12.4589 2.35946 12.8597 2.1165 13.32C1.88227 13.7636 1.69265 14.2264 1.55307 14.6955C1.41826 15.1491 1.3055 15.6451 1.21793 16.17C1.13102 16.6903 1.07226 17.1839 1.04313 17.6373C1.01449 18.0806 1 18.5419 1 19.008C1 20.2197 1.35801 21.2007 2.06399 21.9241C2.76125 22.638 3.68369 23 4.80579 23H15.1942C16.316 23 17.2384 22.638 17.9358 21.9241C18.642 21.2012 19 20.2199 19 19.0079C18.9998 18.5401 18.9852 18.0788 18.9564 17.6368ZM17.0641 20.9386C16.6034 21.4104 15.9917 21.6397 15.194 21.6397H4.80579C4.00796 21.6397 3.39629 21.4104 2.93573 20.9388C2.4839 20.476 2.26432 19.8443 2.26432 19.008C2.26432 18.5731 2.27765 18.1436 2.30431 17.7313C2.33032 17.3268 2.38349 16.8825 2.46233 16.4104C2.54019 15.9441 2.63928 15.5064 2.75714 15.1103C2.87022 14.7304 3.02445 14.3542 3.21572 13.9919C3.39827 13.6466 3.6083 13.3503 3.84006 13.1115C4.05684 12.8882 4.33008 12.7055 4.65205 12.5684C4.94981 12.4416 5.28445 12.3722 5.64773 12.3617C5.69201 12.387 5.77085 12.4354 5.89859 12.525C6.15849 12.7072 6.45807 12.9151 6.78925 13.1427C7.16257 13.3988 7.64354 13.6301 8.21817 13.8297C8.80564 14.034 9.4048 14.1378 9.99951 14.1378C10.5942 14.1378 11.1935 14.034 11.7807 13.8299C12.3558 13.6299 12.8366 13.3988 13.2104 13.1424C13.5493 12.9093 13.8405 12.7074 14.1004 12.525C14.2282 12.4356 14.307 12.387 14.3513 12.3617C14.7147 12.3722 15.0494 12.4416 15.3473 12.5684C15.6691 12.7055 15.9423 12.8884 16.1591 13.1115C16.3909 13.3501 16.6009 13.6464 16.7835 13.9921C16.9749 14.3542 17.1293 14.7306 17.2422 15.1101C17.3602 15.5068 17.4595 15.9442 17.5372 16.4102C17.6159 16.8832 17.6692 17.3277 17.6952 17.7315V17.7319C17.722 18.1425 17.7355 18.5718 17.7357 19.008C17.7355 19.8445 17.5159 20.476 17.0641 20.9386Z" fill="#124570" stroke="#124570" stroke-width="0.2"/>
</svg>
