<svg width="65" height="67" viewBox="0 0 65 67" fill="none" xmlns="http://www.w3.org/2000/svg">
<path d="M0 0H61C63.2091 0 65 1.79086 65 4V67H0V0Z" fill="#EEF3F9"/>
<g clip-path="url(#clip0)">
<path d="M31 32C32.3738 32 33.5632 31.5073 34.5353 30.5351C35.5071 29.5631 36 28.3738 36 26.9998C36 25.6263 35.5073 24.4369 34.5352 23.4646C33.563 22.4927 32.3736 22 31 22C29.6261 22 28.4368 22.4927 27.4648 23.4647C26.4929 24.4367 26 25.6262 26 26.9998C26 28.3738 26.4929 29.5633 27.4648 30.5353C28.4371 31.5071 29.6265 32 31 32ZM28.3252 24.3249C29.071 23.5791 29.9458 23.2165 31 23.2165C32.054 23.2165 32.929 23.5791 33.675 24.3249C34.4208 25.0709 34.7835 25.946 34.7835 26.9998C34.7835 28.054 34.4208 28.9289 33.675 29.6749C32.929 30.4209 32.054 30.7835 31 30.7835C29.9462 30.7835 29.0713 30.4208 28.3252 29.6749C27.5792 28.9291 27.2165 28.054 27.2165 26.9998C27.2165 25.946 27.5792 25.0709 28.3252 24.3249Z" fill="#124570" stroke="#124570" stroke-width="0.2"/>
<path d="M39.9564 38.6368C39.9272 38.1844 39.8683 37.6911 39.7816 37.17C39.694 36.6451 39.5812 36.1489 39.4463 35.6953C39.3067 35.2266 39.1172 34.7636 38.8827 34.32C38.6396 33.8595 38.3538 33.4586 38.0332 33.1286C37.6979 32.7835 37.2873 32.506 36.8126 32.3035C36.3396 32.1022 35.8153 32.0002 35.2545 32.0002C35.0343 32.0002 34.8213 32.0974 34.4099 32.3855C34.1568 32.5632 33.8606 32.7686 33.5301 32.9958C33.2475 33.1896 32.8646 33.3711 32.3917 33.5354C31.9303 33.6961 31.4619 33.7775 30.9993 33.7775C30.5371 33.7775 30.0687 33.6961 29.607 33.5354C29.1346 33.3713 28.7515 33.1897 28.4694 32.996C28.142 32.7709 27.8457 32.5655 27.5888 32.3854C27.1778 32.0972 26.9648 32 26.7445 32C26.1836 32 25.6595 32.1022 25.1866 32.3037C24.7122 32.5058 24.3015 32.7833 23.9659 33.1288C23.6452 33.4589 23.3595 33.8597 23.1165 34.32C22.8823 34.7636 22.6926 35.2264 22.5531 35.6955C22.4183 36.1491 22.3055 36.6451 22.2179 37.17C22.131 37.6903 22.0723 38.1839 22.0431 38.6373C22.0145 39.0806 22 39.5419 22 40.008C22 41.2197 22.358 42.2007 23.064 42.9241C23.7613 43.638 24.6837 44 25.8058 44H36.1942C37.316 44 38.2384 43.638 38.9358 42.9241C39.642 42.2012 40 41.2199 40 40.0079C39.9998 39.5401 39.9852 39.0788 39.9564 38.6368ZM38.0641 41.9386C37.6034 42.4104 36.9917 42.6397 36.194 42.6397H25.8058C25.008 42.6397 24.3963 42.4104 23.9357 41.9388C23.4839 41.476 23.2643 40.8443 23.2643 40.008C23.2643 39.5731 23.2776 39.1436 23.3043 38.7313C23.3303 38.3268 23.3835 37.8825 23.4623 37.4104C23.5402 36.9441 23.6393 36.5064 23.7571 36.1103C23.8702 35.7304 24.0245 35.3542 24.2157 34.9919C24.3983 34.6466 24.6083 34.3503 24.8401 34.1115C25.0568 33.8882 25.3301 33.7055 25.652 33.5684C25.9498 33.4416 26.2845 33.3722 26.6477 33.3617C26.692 33.387 26.7709 33.4354 26.8986 33.525C27.1585 33.7072 27.4581 33.9151 27.7893 34.1427C28.1626 34.3988 28.6435 34.6301 29.2182 34.8297C29.8056 35.034 30.4048 35.1378 30.9995 35.1378C31.5942 35.1378 32.1935 35.034 32.7807 34.8299C33.3558 34.6299 33.8366 34.3988 34.2104 34.1424C34.5493 33.9093 34.8405 33.7074 35.1004 33.525C35.2282 33.4356 35.307 33.387 35.3513 33.3617C35.7147 33.3722 36.0494 33.4416 36.3473 33.5684C36.6691 33.7055 36.9423 33.8884 37.1591 34.1115C37.3909 34.3501 37.6009 34.6464 37.7835 34.9921C37.9749 35.3542 38.1293 35.7306 38.2422 36.1101C38.3602 36.5068 38.4595 36.9442 38.5372 37.4102C38.6159 37.8832 38.6692 38.3277 38.6952 38.7315V38.7319C38.722 39.1425 38.7355 39.5718 38.7357 40.008C38.7355 40.8445 38.5159 41.476 38.0641 41.9386Z" fill="#124570" stroke="#124570" stroke-width="0.2"/>
</g>
<defs>
<clipPath id="clip0">
<rect width="24" height="24" fill="white" transform="translate(20 22)"/>
</clipPath>
</defs>
</svg>
