<svg width="40" height="38" viewBox="0 0 40 38" fill="none" xmlns="http://www.w3.org/2000/svg">
<rect width="40" height="38" rx="4" fill="#EEF3F9"/>
<path d="M20.0833 17.1667C21.3426 17.1667 22.4329 16.715 23.324 15.8239C24.2149 14.9329 24.6667 13.8427 24.6667 12.5832C24.6667 11.3241 24.215 10.2338 23.3239 9.34252C22.4328 8.45167 21.3425 8 20.0833 8C18.8239 8 17.7337 8.45167 16.8428 9.34267C15.9518 10.2337 15.5 11.324 15.5 12.5832C15.5 13.8427 15.9518 14.933 16.8428 15.824C17.734 16.7149 18.8243 17.1667 20.0833 17.1667ZM17.6314 10.1312C18.315 9.44749 19.117 9.11516 20.0833 9.11516C21.0495 9.11516 21.8516 9.44749 22.5354 10.1312C23.2191 10.815 23.5515 11.6171 23.5515 12.5832C23.5515 13.5495 23.2191 14.3515 22.5354 15.0354C21.8516 15.7192 21.0495 16.0515 20.0833 16.0515C19.1173 16.0515 18.3153 15.719 17.6314 15.0354C16.9476 14.3517 16.6151 13.5495 16.6151 12.5832C16.6151 11.6171 16.9476 10.815 17.6314 10.1312Z" fill="#124570" stroke="#124570" stroke-width="0.2"/>
<path d="M28.294 23.2502C28.2673 22.8356 28.2133 22.3833 28.1338 21.9057C28.0535 21.4245 27.9501 20.9696 27.8264 20.5539C27.6985 20.1242 27.5248 19.6998 27.3098 19.2932C27.0869 18.8711 26.825 18.5035 26.531 18.2011C26.2237 17.8847 25.8474 17.6303 25.4122 17.4448C24.9786 17.2602 24.498 17.1667 23.9839 17.1667C23.7821 17.1667 23.5868 17.2558 23.2097 17.5199C22.9777 17.6827 22.7062 17.8711 22.4033 18.0793C22.1442 18.2569 21.7932 18.4233 21.3597 18.574C20.9368 18.7212 20.5074 18.7959 20.0834 18.7959C19.6597 18.7959 19.2303 18.7212 18.807 18.574C18.374 18.4235 18.0229 18.2571 17.7643 18.0795C17.4641 17.8732 17.1926 17.6849 16.957 17.5198C16.5803 17.2556 16.385 17.1665 16.1831 17.1665C15.6689 17.1665 15.1885 17.2602 14.755 17.4449C14.3201 17.6301 13.9437 17.8845 13.636 18.2013C13.3421 18.5039 13.0802 18.8712 12.8574 19.2932C12.6427 19.6998 12.4689 20.124 12.341 20.5541C12.2174 20.9698 12.114 21.4245 12.0338 21.9057C11.9541 22.3827 11.9002 22.8351 11.8735 23.2507C11.8473 23.657 11.834 24.0799 11.834 24.5072C11.834 25.6179 12.1622 26.5171 12.8093 27.1803C13.4485 27.8347 14.294 28.1665 15.3226 28.1665H24.8453C25.8736 28.1665 26.7192 27.8347 27.3585 27.1803C28.0058 26.5176 28.334 25.6181 28.334 24.507C28.3338 24.0783 28.3204 23.6554 28.294 23.2502ZM26.5594 26.2769C26.1371 26.7093 25.5764 26.9196 24.8452 26.9196H15.3226C14.5913 26.9196 14.0306 26.7093 13.6084 26.277C13.1942 25.8528 12.9929 25.2738 12.9929 24.5072C12.9929 24.1085 13.0052 23.7148 13.0296 23.3369C13.0534 22.9661 13.1022 22.5588 13.1745 22.126C13.2458 21.6986 13.3367 21.2974 13.4447 20.9343C13.5484 20.586 13.6897 20.2412 13.8651 19.9091C14.0324 19.5925 14.2249 19.3209 14.4374 19.1021C14.6361 18.8974 14.8866 18.7298 15.1817 18.6042C15.4546 18.488 15.7614 18.4243 16.0944 18.4147C16.135 18.438 16.2073 18.4823 16.3244 18.5644C16.5626 18.7315 16.8372 18.922 17.1408 19.1307C17.483 19.3654 17.9239 19.5774 18.4506 19.7604C18.9892 19.9477 19.5384 20.0428 20.0835 20.0428C20.6287 20.0428 21.1781 19.9477 21.7163 19.7605C22.2435 19.5773 22.6842 19.3654 23.0269 19.1303C23.3375 18.9167 23.6045 18.7316 23.8427 18.5644C23.9598 18.4824 24.0321 18.438 24.0727 18.4147C24.4058 18.4243 24.7126 18.488 24.9857 18.6042C25.2807 18.7298 25.5311 18.8975 25.7298 19.1021C25.9423 19.3208 26.1348 19.5924 26.3022 19.9092C26.4776 20.2412 26.6192 20.5862 26.7227 20.9341C26.8309 21.2977 26.9218 21.6987 26.9931 22.1258C27.0652 22.5594 27.1141 22.9669 27.1379 23.3371V23.3374C27.1625 23.7138 27.1749 24.1074 27.175 24.5072C27.1749 25.2739 26.9736 25.8528 26.5594 26.2769Z" fill="#124570" stroke="#124570" stroke-width="0.2"/>
</svg>
