<svg width="24" height="25" viewBox="0 0 24 25" xmlns="http://www.w3.org/2000/svg">
    <g>
        <path d="M16.0492 13.1432C14.9692 11.4687 13.1299 10.4688 11.1289 10.4688C9.12814 10.4688 7.28866 11.4687 6.20889 13.1432L3.6066 17.1783C3.17483 17.8479 2.97561 18.6212 3.03036 19.4146C3.08511 20.2081 3.38888 20.947 3.90872 21.5518C4.42892 22.1564 5.1163 22.5695 5.89651 22.7468C6.67673 22.9239 7.47653 22.8483 8.20932 22.5282L8.25711 22.5071C10.1012 21.717 12.2089 21.7241 14.0484 22.5282C14.5228 22.7355 15.0254 22.8403 15.5326 22.8403C15.8084 22.8403 16.0858 22.8092 16.3606 22.747C17.1408 22.5699 17.8282 22.1567 18.3486 21.5521C18.8686 20.9475 19.1726 20.2084 19.2275 19.4149C19.2824 18.6212 19.0832 17.8479 18.6515 17.1781L16.0492 13.1432ZM17.2794 20.6432C16.6175 21.4124 15.5467 21.6555 14.6147 21.2482C13.5069 20.7639 12.3178 20.5218 11.1284 20.5218C9.94003 20.5218 8.75113 20.7637 7.64407 21.2475L7.61258 21.2613C6.68771 21.65 5.63266 21.4038 4.97806 20.6432C4.31686 19.8739 4.24161 18.7848 4.79092 17.9329L7.3934 13.8978C8.21335 12.6263 9.60971 11.8672 11.1289 11.8672C12.6482 11.8672 14.0447 12.6263 14.8648 13.8978L17.4669 17.9327C18.0164 18.785 17.941 19.8743 17.2794 20.6432Z" />
        <path d="M4.30758 13.138C5.08175 12.8424 5.66988 12.2223 5.96376 11.3919C6.24318 10.6016 6.2203 9.70948 5.89895 8.87956C5.57741 8.05019 4.99257 7.37315 4.25228 6.97293C3.47426 6.5527 2.61971 6.48427 1.84682 6.78038C0.29189 7.37461 -0.421672 9.28451 0.256367 11.0388C0.797993 12.4351 2.06124 13.3165 3.3384 13.3165C3.66451 13.3165 3.99154 13.259 4.30758 13.138ZM1.56923 10.5365C1.1697 9.50273 1.52071 8.40309 2.35219 8.08532C2.50234 8.0278 2.66109 7.99923 2.82314 7.99923C3.07326 7.99923 3.33162 8.06712 3.58028 8.20161C4.02742 8.44313 4.38466 8.86245 4.58608 9.38206C4.78731 9.90203 4.80526 10.4509 4.63643 10.928C4.48171 11.3651 4.18563 11.6865 3.80294 11.8327L3.8022 11.833C2.97182 12.1512 1.97005 11.5693 1.56923 10.5365Z" />
        <path d="M9.35699 9.97593C11.3008 9.97593 12.8823 8.18506 12.8823 5.98378C12.8823 3.78196 11.3008 1.99072 9.35699 1.99072C7.41333 1.99072 5.83203 3.78196 5.83203 5.98378C5.83203 8.18506 7.41333 9.97593 9.35699 9.97593ZM9.35699 3.38902C10.525 3.38902 11.4755 4.55309 11.4755 5.98378C11.4755 7.41393 10.525 8.57763 9.35699 8.57763C8.18896 8.57763 7.23883 7.41393 7.23883 5.98378C7.23883 4.55309 8.18896 3.38902 9.35699 3.38902Z" />
        <path d="M15.4438 10.9577H15.444C15.743 11.0563 16.0481 11.1035 16.3518 11.1035C17.7694 11.1035 19.151 10.0779 19.6781 8.50179C19.9817 7.59453 19.9618 6.63521 19.6219 5.80074C19.2663 4.92733 18.6073 4.29325 17.7662 4.01515C16.925 3.73742 16.0147 3.85317 15.2038 4.34129C14.4291 4.80776 13.8354 5.56415 13.5324 6.47141C12.8924 8.38531 13.7499 10.3979 15.4438 10.9577ZM14.8674 6.91239C15.0653 6.31999 15.4436 5.83187 15.9327 5.53739C16.3852 5.26494 16.8788 5.1956 17.3225 5.34211C17.766 5.4888 18.1194 5.83787 18.3178 6.32527C18.5323 6.85197 18.5414 7.46822 18.3431 8.06063C17.9478 9.24289 16.8462 9.94723 15.8877 9.63073C14.9298 9.31405 14.4721 8.09466 14.8674 6.91239Z" />
        <path d="M22.8698 10.4913L22.8693 10.4908C21.5288 9.50653 19.5239 9.93313 18.3999 11.4423C17.2769 12.9521 17.4525 14.982 18.791 15.9669C19.2791 16.3264 19.8559 16.4982 20.4462 16.4982C21.4751 16.4982 22.5455 15.9762 23.2609 15.0164C24.3839 13.5065 24.2085 11.4767 22.8698 10.4913ZM22.1303 14.1844C21.4665 15.075 20.3443 15.3703 19.6281 14.8431C18.9126 14.3166 18.869 13.1638 19.5309 12.2738C19.9709 11.683 20.6136 11.3544 21.2059 11.3544C21.5055 11.3544 21.7923 11.4384 22.0332 11.6155C22.7482 12.1426 22.7916 13.295 22.1303 14.1844Z" />
    </g>
    <defs>
        <clipPath>
            <rect y="0.500488" width="24" height="23.855"/>
        </clipPath>
    </defs>
</svg>
