<svg width="50" height="50" viewBox="0 0 50 50" fill="none" xmlns="http://www.w3.org/2000/svg">
<rect width="50" height="50" rx="4" fill="#EEF3F9"/>
<g clip-path="url(#clip0)">
<path d="M27.5485 24.4773C26.4776 22.8033 24.6536 21.8037 22.6693 21.8037C20.6852 21.8037 18.861 22.8033 17.7902 24.4773L15.2096 28.5112C14.7815 29.1805 14.5839 29.9536 14.6382 30.7467C14.6925 31.5399 14.9937 32.2786 15.5092 32.8832C16.0251 33.4876 16.7068 33.9006 17.4805 34.0778C18.2542 34.2549 19.0473 34.1794 19.774 33.8593L19.8214 33.8382C21.6501 33.0484 23.7402 33.0555 25.5644 33.8593C26.0349 34.0666 26.5333 34.1714 27.0363 34.1714C27.3097 34.1714 27.5848 34.1402 27.8574 34.078C28.6311 33.901 29.3127 33.488 29.8288 32.8836C30.3445 32.2792 30.6459 31.5403 30.7004 30.747C30.7548 29.9536 30.5573 29.1805 30.1291 28.511L27.5485 24.4773ZM28.7685 31.975C28.1121 32.7438 27.0503 32.9869 26.126 32.5797C25.0275 32.0956 23.8483 31.8536 22.6687 31.8536C21.4903 31.8536 20.3113 32.0954 19.2135 32.579L19.1822 32.5928C18.2651 32.9815 17.2188 32.7353 16.5697 31.975C15.914 31.2059 15.8393 30.1172 16.3841 29.2655L18.9649 25.2317C19.778 23.9606 21.1627 23.2017 22.6693 23.2017C24.1758 23.2017 25.5608 23.9606 26.3741 25.2317L28.9545 29.2653C29.4994 30.1173 29.4246 31.2063 28.7685 31.975Z" fill="#124570"/>
<path d="M15.9045 24.4721C16.6722 24.1766 17.2554 23.5567 17.5469 22.7265C17.824 21.9366 17.8013 21.0447 17.4826 20.215C17.1637 19.3859 16.5838 18.7091 15.8497 18.309C15.0781 17.8889 14.2307 17.8205 13.4642 18.1165C11.9223 18.7105 11.2147 20.6198 11.887 22.3736C12.4242 23.7694 13.6769 24.6506 14.9434 24.6506C15.2668 24.6506 15.5911 24.5931 15.9045 24.4721ZM13.189 21.8714C12.7928 20.838 13.1409 19.7387 13.9654 19.421C14.1143 19.3635 14.2717 19.335 14.4324 19.335C14.6805 19.335 14.9367 19.4028 15.1833 19.5373C15.6267 19.7787 15.9809 20.1979 16.1807 20.7174C16.3802 21.2372 16.398 21.7859 16.2306 22.2628C16.0772 22.6998 15.7836 23.0211 15.4041 23.1672L15.4033 23.1676C14.5799 23.4856 13.5864 22.9039 13.189 21.8714Z" fill="#124570"/>
<path d="M20.9121 21.3113C22.8397 21.3113 24.408 19.521 24.408 17.3204C24.408 15.1193 22.8397 13.3286 20.9121 13.3286C18.9846 13.3286 17.4165 15.1193 17.4165 17.3204C17.4165 19.521 18.9846 21.3113 20.9121 21.3113ZM20.9121 14.7265C22.0704 14.7265 23.013 15.8902 23.013 17.3204C23.013 18.7501 22.0704 19.9134 20.9121 19.9134C19.7538 19.9134 18.8116 18.7501 18.8116 17.3204C18.8116 15.8902 19.7538 14.7265 20.9121 14.7265Z" fill="#124570"/>
<path d="M26.9491 22.2924H26.9493C27.2458 22.391 27.5483 22.4381 27.8495 22.4381C29.2553 22.4381 30.6253 21.4128 31.1481 19.8372C31.4492 18.9303 31.4294 17.9712 31.0924 17.137C30.7397 16.2639 30.0862 15.63 29.2521 15.352C28.4179 15.0744 27.5152 15.1901 26.711 15.6781C25.9428 16.1444 25.3541 16.9005 25.0536 17.8075C24.4189 19.7208 25.2693 21.7327 26.9491 22.2924ZM26.3775 18.2483C26.5738 17.6561 26.9489 17.1682 27.4339 16.8738C27.8826 16.6014 28.3721 16.5321 28.8121 16.6786C29.2519 16.8252 29.6023 17.1742 29.7992 17.6614C30.0118 18.1879 30.0209 18.804 29.8242 19.3962C29.4322 20.5781 28.3398 21.2822 27.3892 20.9658C26.4394 20.6492 25.9854 19.4302 26.3775 18.2483Z" fill="#124570"/>
<path d="M34.3127 21.8264L34.3122 21.8258C32.9829 20.8419 30.9947 21.2683 29.88 22.777C28.7664 24.2864 28.9405 26.3156 30.2679 27.3002C30.752 27.6596 31.3239 27.8313 31.9094 27.8313C32.9296 27.8313 33.9912 27.3095 34.7006 26.35C35.8142 24.8406 35.6403 22.8114 34.3127 21.8264ZM33.5793 25.5183C32.9211 26.4085 31.8082 26.7038 31.0981 26.1767C30.3884 25.6504 30.3452 24.498 31.0016 23.6083C31.438 23.0177 32.0753 22.6891 32.6627 22.6891C32.9598 22.6891 33.2441 22.7732 33.4831 22.9502C34.1922 23.4771 34.2352 24.6292 33.5793 25.5183Z" fill="#124570"/>
</g>
<defs>
<clipPath id="clip0">
<rect width="23.8" height="23.8474" fill="white" transform="translate(11.6333 11.8386)"/>
</clipPath>
</defs>
</svg>
