<svg width="19" height="17" viewBox="0 0 19 17" fill="none" xmlns="http://www.w3.org/2000/svg">
<path d="M17.9608 13.7461H17.9428V13.8461C17.9428 14.1441 17.8273 14.4078 17.6289 14.6062C17.4305 14.8047 17.1668 14.9201 16.8688 14.9201H2.13118C1.83323 14.9201 1.56952 14.8047 1.37109 14.6062C1.17267 14.4078 1.05722 14.1441 1.05722 13.8461V4.85185C1.05722 4.5539 1.17267 4.29018 1.37109 4.09176C1.56952 3.89333 1.83323 3.77789 2.13118 3.77789H5.61692C5.94306 3.77789 6.20456 3.51639 6.20456 3.19025V2.66649C6.20456 2.49187 6.26794 2.33749 6.37394 2.23149C6.47994 2.12549 6.63432 2.06211 6.80894 2.06211H12.2091C12.3837 2.06211 12.5381 2.12549 12.6441 2.23149C12.7501 2.33749 12.8135 2.49187 12.8135 2.66649V3.19025C12.8135 3.51639 13.075 3.77789 13.4011 3.77789H16.8869C17.1848 3.77789 17.4485 3.89333 17.647 4.09176C17.8454 4.29018 17.9608 4.5539 17.9608 4.85185V13.7461ZM18.4386 3.28207C18.0406 2.86604 17.4914 2.62067 16.8688 2.62067H13.9696C13.9534 2.16715 13.7659 1.73418 13.4527 1.4388C13.1276 1.11421 12.6874 0.922949 12.2091 0.922949H6.79087C6.29458 0.922949 5.8538 1.11423 5.52815 1.43988C5.21742 1.75061 5.02859 2.16664 5.01236 2.62067H2.13118C1.50818 2.62067 0.958625 2.86637 0.560599 3.28291C0.164735 3.67919 -0.1 4.24547 -0.1 4.85185V13.8461C-0.1 14.4691 0.145697 15.0187 0.562224 15.4167C0.958504 15.8126 1.52479 16.0773 2.13118 16.0773H16.8688C17.4918 16.0773 18.0414 15.8316 18.4394 15.4151C18.8353 15.0188 19.1 14.4525 19.1 13.8461V4.85185C19.1 4.22927 18.8546 3.68004 18.4386 3.28207Z" fill="#124570" stroke="#124570" stroke-width="0.2"/>
<path d="M12.4527 9.63372L12.4528 9.63561C12.4681 10.4484 12.1309 11.186 11.5921 11.7251C11.0526 12.2489 10.314 12.5868 9.49966 12.5868C8.68535 12.5868 7.94673 12.2489 7.40726 11.7251C6.86939 11.187 6.54657 10.4492 6.54657 9.63372C6.54657 8.81941 6.88446 8.08079 7.40828 7.54132C7.94641 7.00345 8.68418 6.68064 9.49966 6.68064C10.314 6.68064 11.0526 7.01853 11.5921 7.54235C12.1299 8.08048 12.4527 8.81825 12.4527 9.63372ZM9.49966 5.60605C8.39068 5.60605 7.37967 6.06267 6.66209 6.78025C5.92838 7.51395 5.48789 8.50914 5.48789 9.61782C5.48789 10.7268 5.9445 11.7378 6.66209 12.4554C7.39579 13.1891 8.39097 13.6296 9.49966 13.6296C10.6086 13.6296 11.6196 13.173 12.3372 12.4554C13.0709 11.7217 13.5114 10.7265 13.5114 9.61782C13.5114 8.50884 13.0548 7.49784 12.3372 6.78025C11.6196 6.06267 10.6086 5.60605 9.49966 5.60605Z" fill="#124570" stroke="#124570" stroke-width="0.2"/>
<path d="M15.9319 6.75766C16.4758 6.75766 16.9168 6.31667 16.9168 5.77268C16.9168 5.22869 16.4758 4.7877 15.9319 4.7877C15.3879 4.7877 14.9469 5.22869 14.9469 5.77268C14.9469 6.31667 15.3879 6.75766 15.9319 6.75766Z" fill="#124570" stroke="#124570" stroke-width="0.2"/>
</svg>
