<svg width="40" height="38" viewBox="0 0 40 38" fill="none" xmlns="http://www.w3.org/2000/svg">
<rect width="40" height="38" rx="4" fill="#EEF3F9"/>
<path d="M28.0225 10H12.3821C11.9503 10 11.6001 10.3501 11.6001 10.782V26.9437C11.6001 27.3756 11.9502 27.7257 12.3821 27.7257H28.0225C28.4543 27.7257 28.8045 27.3756 28.8045 26.9437V10.782C28.8045 10.3501 28.4544 10 28.0225 10ZM27.2405 16.2561H24.8944C24.4626 16.2561 24.1124 16.6062 24.1124 17.0382C24.1124 17.4701 24.4625 17.8202 24.8944 17.8202H27.2405V26.1617H17.3349V23.8157C17.3349 23.3838 16.9848 23.0336 16.5529 23.0336C16.121 23.0336 15.7708 23.3837 15.7708 23.8157V26.1617H13.1641V11.564H15.7708V20.1662C15.7708 20.5981 16.121 20.9482 16.5529 20.9482C16.9848 20.9482 17.3349 20.5981 17.3349 20.1662V17.8201H21.245C21.6768 17.8201 22.027 17.47 22.027 17.0381C22.027 16.6062 21.6769 16.2561 21.245 16.2561H17.3349V11.564H27.2404V16.2561H27.2405Z" fill="#124570"/>
</svg>
