<svg width="37" height="37" viewBox="0 0 37 37" fill="none" xmlns="http://www.w3.org/2000/svg">
<path d="M35.916 17.416H32.6641C32.0654 17.416 31.5801 17.9014 31.5801 18.5C31.5801 19.0986 32.0654 19.584 32.6641 19.584H35.916C36.5147 19.584 37 19.0986 37 18.5C37 17.9014 36.5147 17.416 35.916 17.416Z" fill="#124570"/>
<path d="M34.5146 24.2374L32.3466 22.0694C31.9234 21.6461 31.237 21.6461 30.8136 22.0694C30.3902 22.4927 30.3902 23.179 30.8136 23.6024L32.9816 25.7703C33.4049 26.1937 34.0913 26.1937 34.5146 25.7703C34.9379 25.347 34.9379 24.6607 34.5146 24.2374Z" fill="#124570"/>
<path d="M34.5141 11.2296C34.0908 10.8063 33.4044 10.8063 32.9811 11.2296L30.8131 13.3975C30.3898 13.8209 30.3898 14.5072 30.8131 14.9305C31.2364 15.3538 31.9228 15.3538 32.3461 14.9305L34.5141 12.7625C34.9374 12.3392 34.9374 11.6529 34.5141 11.2296Z" fill="#124570"/>
<path d="M25.0762 4.4082C23.448 4.4082 22.0956 5.61106 21.8606 7.17482L20.8718 8.16363C19.1508 9.88464 16.6163 10.9121 14.0918 10.9121H7.58789C6.17474 10.9121 4.96985 11.8184 4.52238 13.0801H4.33594C1.9451 13.0801 0 15.0252 0 17.416C0 19.8069 1.9451 21.752 4.33594 21.752H4.52238C4.84953 22.6744 5.58151 23.4063 6.50391 23.7335V29.3398C6.50391 31.133 7.96281 32.5918 9.75593 32.5918C11.549 32.5918 13.0078 31.133 13.0078 29.3398V23.9199H14.0918C16.6162 23.9199 19.1507 24.9474 20.8718 26.6684L21.8606 27.6572C22.0956 29.2209 23.448 30.4238 25.0762 30.4238C26.8693 30.4238 28.3281 28.965 28.3281 27.1719V7.66016C28.3281 5.86703 26.8693 4.4082 25.0762 4.4082ZM4.33594 19.584C3.14052 19.584 2.16797 18.6114 2.16797 17.416C2.16797 16.2206 3.14052 15.248 4.33594 15.248V19.584ZM10.8398 29.3398C10.8398 29.9376 10.3536 30.4238 9.75586 30.4238C9.15815 30.4238 8.67188 29.9376 8.67188 29.3398V23.9199H10.8398V29.3398ZM13.0078 21.752H7.58789C6.99018 21.752 6.50391 21.2657 6.50391 20.668V14.1641C6.50391 13.5664 6.99018 13.0801 7.58789 13.0801H13.0078V21.752ZM21.8242 24.5953C19.9929 23.0104 17.6384 22.0256 15.1686 21.8011L15.1686 13.0309C17.6384 12.8064 19.9929 11.8216 21.8242 10.2366V24.5953ZM26.1602 27.1719C26.1602 27.7696 25.6739 28.2559 25.0762 28.2559H25.0762C24.4785 28.2559 23.9922 27.7696 23.9922 27.1719V7.66016C23.9922 7.06245 24.4785 6.57617 25.0762 6.57617C25.6739 6.57617 26.1602 7.06245 26.1602 7.66016V27.1719Z" fill="#124570"/>
</svg>
