<svg width="10" height="11" viewBox="0 0 10 11" fill="none" xmlns="http://www.w3.org/2000/svg">
<path d="M8.27075 9.68462L0.315795 1.72967C0.169424 1.5833 0.367413 1.14772 0.757737 0.7574C1.14806 0.367075 1.58364 0.169086 1.73001 0.315458L9.68496 8.27041C9.83133 8.41678 9.63334 8.85236 9.24302 9.24268C8.85269 9.63301 8.41712 9.83099 8.27075 9.68462Z" fill="white"/>
<path d="M0.256584 8.47498L7.95715 0.273532C8.09885 0.122625 8.54044 0.306803 8.94286 0.684645C9.34528 1.06249 9.55688 1.49162 9.41519 1.64252L1.71462 9.84397C1.57293 9.99488 1.13133 9.8107 0.728916 9.43285C0.326497 9.05501 0.114893 8.62589 0.256584 8.47498Z" fill="white"/>
</svg>
