<svg width="19" height="19" viewBox="0 0 19 19" fill="none" xmlns="http://www.w3.org/2000/svg">
<g clip-path="url(#clip0)">
<path d="M17.9608 14.7461H17.9428V14.8461C17.9428 15.1441 17.8273 15.4078 17.6289 15.6062C17.4305 15.8047 17.1668 15.9201 16.8688 15.9201H2.13118C1.83323 15.9201 1.56952 15.8047 1.37109 15.6062C1.17267 15.4078 1.05722 15.1441 1.05722 14.8461V5.85185C1.05722 5.5539 1.17267 5.29018 1.37109 5.09176C1.56952 4.89333 1.83323 4.77789 2.13118 4.77789H5.61692C5.94306 4.77789 6.20456 4.51639 6.20456 4.19025V3.66649C6.20456 3.49187 6.26794 3.33749 6.37394 3.23149C6.47994 3.12549 6.63432 3.06211 6.80894 3.06211H12.2091C12.3837 3.06211 12.5381 3.12549 12.6441 3.23149C12.7501 3.33749 12.8135 3.49187 12.8135 3.66649V4.19025C12.8135 4.51639 13.075 4.77789 13.4011 4.77789H16.8869C17.1848 4.77789 17.4485 4.89333 17.647 5.09176C17.8454 5.29018 17.9608 5.5539 17.9608 5.85185V14.7461ZM18.4386 4.28207C18.0406 3.86604 17.4914 3.62067 16.8688 3.62067H13.9696C13.9534 3.16715 13.7659 2.73418 13.4527 2.4388C13.1276 2.11421 12.6874 1.92295 12.2091 1.92295H6.79087C6.29458 1.92295 5.8538 2.11423 5.52815 2.43988C5.21742 2.75061 5.02859 3.16664 5.01236 3.62067H2.13118C1.50818 3.62067 0.958625 3.86637 0.560599 4.28291C0.164735 4.67919 -0.1 5.24547 -0.1 5.85185V14.8461C-0.1 15.4691 0.145697 16.0187 0.562224 16.4167C0.958504 16.8126 1.52479 17.0773 2.13118 17.0773H16.8688C17.4918 17.0773 18.0414 16.8316 18.4394 16.4151C18.8353 16.0188 19.1 15.4525 19.1 14.8461V5.85185C19.1 5.22927 18.8546 4.68004 18.4386 4.28207Z" fill="#124570" stroke="#124570" stroke-width="0.2"/>
<path d="M12.453 10.6337L12.453 10.6356C12.4683 11.4484 12.1312 12.186 11.5923 12.7251C11.0528 13.2489 10.3142 13.5868 9.4999 13.5868C8.68559 13.5868 7.94697 13.2489 7.4075 12.7251C6.86964 12.187 6.54682 11.4492 6.54682 10.6337C6.54682 9.81941 6.88471 9.08079 7.40852 8.54132C7.94665 8.00345 8.68442 7.68064 9.4999 7.68064C10.3142 7.68064 11.0528 8.01853 11.5923 8.54235C12.1302 9.08048 12.453 9.81825 12.453 10.6337ZM9.4999 6.60605C8.39092 6.60605 7.37992 7.06267 6.66233 7.78025C5.92863 8.51395 5.48813 9.50914 5.48813 10.6178C5.48813 11.7268 5.94475 12.7378 6.66233 13.4554C7.39603 14.1891 8.39122 14.6296 9.4999 14.6296C10.6089 14.6296 11.6199 14.173 12.3375 13.4554C13.0712 12.7217 13.5117 11.7265 13.5117 10.6178C13.5117 9.50884 13.0551 8.49784 12.3375 7.78025C11.6199 7.06267 10.6089 6.60605 9.4999 6.60605Z" fill="#124570" stroke="#124570" stroke-width="0.2"/>
<path d="M15.9311 7.75766C16.4751 7.75766 16.9161 7.31667 16.9161 6.77268C16.9161 6.22869 16.4751 5.7877 15.9311 5.7877C15.3871 5.7877 14.9461 6.22869 14.9461 6.77268C14.9461 7.31667 15.3871 7.75766 15.9311 7.75766Z" fill="#124570" stroke="#124570" stroke-width="0.2"/>
</g>
<defs>
<clipPath id="clip0">
<rect width="19" height="19" fill="white"/>
</clipPath>
</defs>
</svg>
