<svg width="32" height="32" viewBox="0 0 32 32" fill="none" xmlns="http://www.w3.org/2000/svg">
<g clip-path="url(#clip0)">
<path d="M28.7293 5.18186L16.4793 0.0957988C16.1724 -0.0315762 15.8275 -0.0316387 15.5207 0.0957988L3.27069 5.18186C2.80413 5.37561 2.5 5.83111 2.5 6.3363V12.5191C2.5 21.0324 7.64556 28.6904 15.5276 31.9075C15.8304 32.0311 16.1696 32.0311 16.4724 31.9075C24.3543 28.6904 29.5 21.0325 29.5 12.5191V6.3363C29.5 5.83111 29.1959 5.37561 28.7293 5.18186ZM27 12.5191C27 19.7563 22.75 26.4186 16 29.3925C9.43038 26.498 5 19.9524 5 12.5191V7.1708L16 2.60367L27 7.1708V12.5191ZM14.6184 16.7325L19.9911 11.3598C20.4792 10.8717 21.2707 10.8716 21.7589 11.3598C22.2471 11.848 22.247 12.6394 21.7588 13.1275L15.5022 19.3841C15.014 19.8724 14.2226 19.8722 13.7345 19.3841L10.2411 15.8907C9.75294 15.4025 9.75294 14.6111 10.2411 14.123C10.7293 13.6349 11.5208 13.6348 12.0089 14.123L14.6184 16.7325Z" fill="#124570"/>
</g>
<defs>
<clipPath id="clip0">
<rect width="32" height="32" fill="white"/>
</clipPath>
</defs>
</svg>
