<svg width="26" height="26" viewBox="0 0 26 26" xmlns="http://www.w3.org/2000/svg">
    <path d="M25.2383 17.5703H0.761719C0.341047 17.5703 0 17.9114 0 18.332V21.3789C0 21.7996 0.341047 22.1406 0.761719 22.1406H25.2383C25.659 22.1406 26 21.7996 26 21.3789V18.332C26 17.9114 25.659 17.5703 25.2383 17.5703ZM21.4297 19.0938V20.6172H7.66797V19.0938H21.4297ZM1.52344 19.0938H6.14453V20.6172H1.52344V19.0938ZM24.4766 20.6172H22.9531V19.0938H24.4766V20.6172Z"/>
    <path d="M14.5742 8.42969H12.2383C10.5582 8.42969 9.19141 9.79651 9.19141 11.4766C9.19141 13.1566 10.5582 14.5234 12.2383 14.5234H20.668C21.088 14.5234 21.4297 14.865 21.4297 15.2849C21.4297 15.7056 21.7707 16.0467 22.1914 16.0467C22.6121 16.0467 22.9531 15.7056 22.9531 15.2849C22.9531 14.025 21.928 13 20.668 13H12.2383C11.3983 13 10.7148 12.3166 10.7148 11.4766C10.7148 10.6365 11.3983 9.95312 12.2383 9.95312H14.5742C15.8343 9.95312 16.8594 8.928 16.8594 7.66797C16.8594 6.40793 15.8343 5.38281 14.5742 5.38281H13C12.58 5.38281 12.2383 5.04111 12.2383 4.62109C12.2383 4.20042 11.8972 3.85938 11.4766 3.85938C11.0559 3.85938 10.7148 4.20042 10.7148 4.62109C10.7148 5.88113 11.74 6.90625 13 6.90625H14.5742C14.9942 6.90625 15.3359 7.24796 15.3359 7.66797C15.3359 8.08798 14.9942 8.42969 14.5742 8.42969Z"/>
    <path d="M22.1914 9.95312C20.9314 9.95312 19.9062 8.928 19.9062 7.66797C19.9062 7.2473 19.5652 6.90625 19.1445 6.90625C18.7239 6.90625 18.3828 7.2473 18.3828 7.66797C18.3828 9.76803 20.0913 11.4766 22.1914 11.4766C23.4514 11.4766 24.4766 12.5017 24.4766 13.7617V15.2852C24.4766 15.7058 24.8176 16.0469 25.2383 16.0469C25.659 16.0469 26 15.7058 26 15.2852V13.7617C26 11.6617 24.2915 9.95312 22.1914 9.95312Z"/>
</svg>
