<svg width="41" height="29" viewBox="0 0 41 29" fill="none" xmlns="http://www.w3.org/2000/svg">
<path d="M41 8.35016H39.6333V0.833496H27.3333H25.9667H15.0333H13.6667H1.36667V8.35016H0V24.0668H1.36667V26.1168H2.73333V26.8002C2.35613 26.8002 2.05 27.1063 2.05 27.4835C2.05 27.8607 2.35613 28.1668 2.73333 28.1668H4.1C4.4772 28.1668 4.78333 27.8607 4.78333 27.4835C4.78333 27.1063 4.4772 26.8002 4.1 26.8002V26.1168H5.46667V24.0668H35.5333V26.1168H36.9V26.8002C36.5228 26.8002 36.2167 27.1063 36.2167 27.4835C36.2167 27.8607 36.5228 28.1668 36.9 28.1668H38.2667C38.6439 28.1668 38.95 27.8607 38.95 27.4835C38.95 27.1063 38.6439 26.8002 38.2667 26.8002V26.1168H39.6333V24.0668H41V8.35016ZM27.3333 2.20016H38.2667V8.35016H35.5333V13.1335H27.3333V2.20016ZM5.46667 14.5002H13.6667H15.0333H19.8167V18.6002H5.46667V14.5002ZM21.1833 14.5002H25.9667H27.3333H35.5333V18.6002H21.1833V14.5002ZM15.0333 2.20016H25.9667V13.1335H21.1833H19.8167H15.0333V2.20016ZM2.73333 2.20016H13.6667V13.1335H5.46667V8.35016H2.73333V2.20016ZM4.1 24.7502H2.73333V24.0668H4.1V24.7502ZM38.2667 24.7502H36.9V24.0668H38.2667V24.7502ZM39.6333 22.7002H35.5333H5.46667H1.36667V9.71683H4.1V13.1335V14.5002V19.9668H19.8167H21.1833H36.9V14.5002V13.1335V9.71683H39.6333V22.7002Z" fill="#124570"/>
</svg>
