<svg width="40" height="38" viewBox="0 0 40 38" fill="none" xmlns="http://www.w3.org/2000/svg">
<rect width="40" height="38" rx="4" fill="#EEF3F9"/>
<path d="M27.8812 9.89453H23.6904C23.2379 9.89453 22.871 10.2614 22.871 10.7139V13.7611H19.4996C19.0471 13.7611 18.6802 14.1279 18.6802 14.5805V17.6277H15.3089C14.8565 17.6277 14.4895 17.9945 14.4895 18.4471V21.4943H11.1182C10.6658 21.4943 10.2988 21.8612 10.2988 22.3137V26.1803C10.2988 26.6329 10.6658 26.9998 11.1182 26.9998H27.8812C28.3336 26.9998 28.7006 26.6329 28.7006 26.1803V10.7139C28.7006 10.2614 28.3336 9.89453 27.8812 9.89453ZM27.0618 25.3609H11.9376V23.133H15.309C15.7615 23.133 16.1284 22.7662 16.1284 22.3136V19.2664H19.4998C19.9523 19.2664 20.3192 18.8996 20.3192 18.447V15.3999H23.6906C24.143 15.3999 24.51 15.033 24.51 14.5805V11.5333H27.0619V25.3609H27.0618Z" fill="#124570"/>
</svg>
