<svg width="15" height="15" viewBox="0 0 15 15" fill="none" xmlns="http://www.w3.org/2000/svg">
<g clip-path="url(#clip0)">
<g filter="url(#filter0_d)">
<path d="M3.89807 9.75904L3.15899 14.2898C3.10007 14.6497 3.48449 14.9198 3.80241 14.7431L7.64657 12.6185L11.4907 14.7436C11.8057 14.9186 12.1937 14.6538 12.1342 14.2904L11.3951 9.75962L14.5217 6.55478C14.7697 6.30103 14.6273 5.87053 14.275 5.81687L9.97116 5.15945L8.04207 1.05044C7.89799 0.743604 7.39457 0.743604 7.25049 1.05044L5.32199 5.15886L1.01815 5.81628C0.664655 5.87053 0.523488 6.30045 0.771405 6.5542L3.89807 9.75904Z" fill="#FFA800"/>
</g>
</g>
<defs>
<filter id="filter0_d" x="-9.35352" y="-5.17969" width="33.9999" height="33.9786" filterUnits="userSpaceOnUse" color-interpolation-filters="sRGB">
<feFlood flood-opacity="0" result="BackgroundImageFix"/>
<feColorMatrix in="SourceAlpha" type="matrix" values="0 0 0 0 0 0 0 0 0 0 0 0 0 0 0 0 0 0 127 0"/>
<feOffset dy="4"/>
<feGaussianBlur stdDeviation="5"/>
<feColorMatrix type="matrix" values="0 0 0 0 0.145833 0 0 0 0 0.145226 0 0 0 0 0.145226 0 0 0 1 0"/>
<feBlend mode="normal" in2="BackgroundImageFix" result="effect1_dropShadow"/>
<feBlend mode="normal" in="SourceGraphic" in2="effect1_dropShadow" result="shape"/>
</filter>
<clipPath id="clip0">
<rect x="0.646484" y="0.797363" width="14" height="14" fill="white"/>
</clipPath>
</defs>
</svg>
