<svg width="50" height="50" viewBox="0 0 50 50" fill="none" xmlns="http://www.w3.org/2000/svg">
<rect width="50" height="50" rx="4" fill="#EEF3F9"/>
<g clip-path="url(#clip0)">
<path d="M36.3529 13.437H13.2385C12.2293 13.437 11.4082 14.2597 11.4082 15.271V29.9428C11.4082 30.9541 12.2293 31.7768 13.2385 31.7768H20.9651V33.8779L14.6016 36.0989C14.1925 36.2416 13.9764 36.6897 14.1189 37.0996C14.2615 37.5097 14.7086 37.7261 15.1177 37.5833L23.6776 34.5957C24.3986 34.3441 25.1929 34.3441 25.9139 34.5957L34.4738 37.5833C34.5592 37.6132 34.6463 37.6273 34.7319 37.6273C35.0564 37.6273 35.3599 37.424 35.4726 37.0996C35.6152 36.6897 35.399 36.2416 34.9899 36.0989L28.6263 33.8779V31.7768H36.3529C37.3621 31.7768 38.1832 30.9541 38.1832 29.9428V15.271C38.1832 14.2597 37.3621 13.437 36.3529 13.437ZM27.0575 33.3303L26.4299 33.1113C25.3761 32.7434 24.2153 32.7434 23.1615 33.1113L22.534 33.3303V31.7768H27.0575V33.3303ZM36.6144 29.9428C36.6144 30.0873 36.4971 30.2048 36.3529 30.2048H13.2385C13.0943 30.2048 12.9771 30.0873 12.9771 29.9428V15.271C12.9771 15.1265 13.0943 15.009 13.2385 15.009H36.3529C36.4971 15.009 36.6144 15.1265 36.6144 15.271V29.9428Z" fill="#124570"/>
<path d="M15.6753 19.4943L17.5141 17.6518C17.8205 17.3449 17.8205 16.8472 17.5141 16.5403C17.2078 16.2333 16.7111 16.2333 16.4048 16.5403L14.5659 18.3828C14.2596 18.6898 14.2596 19.1874 14.5659 19.4943C14.7191 19.6478 14.9199 19.7246 15.1206 19.7246C15.3213 19.7246 15.5222 19.6478 15.6753 19.4943Z" fill="#124570"/>
<path d="M19.9784 17.1516L15.1758 21.9638C14.8695 22.2708 14.8695 22.7684 15.1758 23.0754C15.329 23.2288 15.5297 23.3056 15.7304 23.3056C15.9312 23.3056 16.132 23.2289 16.2851 23.0754L21.0877 18.2632C21.394 17.9562 21.394 17.4586 21.0877 17.1516C20.7814 16.8446 20.2847 16.8446 19.9784 17.1516Z" fill="#124570"/>
</g>
<defs>
<clipPath id="clip0">
<rect width="26.775" height="26.8285" fill="white" transform="translate(11.4082 12.1177)"/>
</clipPath>
</defs>
</svg>
