<svg width="50" height="50" viewBox="0 0 50 50" fill="none" xmlns="http://www.w3.org/2000/svg">
<rect width="50" height="50" rx="4" fill="#EEF3F9"/>
<path d="M14.6367 11V38H36.3633V11H14.6367ZM16.2188 12.582H24.709V16.748H16.2188V12.582ZM34.7812 36.418H16.2188V18.3301H34.7812V36.418ZM34.7812 16.748H26.291V12.582H34.7812V16.748Z" fill="#124570"/>
<path d="M31.2861 23.6605C30.0632 21.7562 27.9264 20.4922 25.5006 20.4922C21.7127 20.4922 18.6304 23.574 18.6304 27.3624C18.6304 31.1503 21.7127 34.2321 25.5006 34.2321C27.9264 34.2321 30.0627 32.9681 31.2856 31.0644C31.9722 29.9955 32.3708 28.7246 32.3708 27.3624C32.3708 26.0003 31.9722 24.7294 31.2861 23.6605ZM25.5006 32.6501C22.5849 32.6501 20.2124 30.2781 20.2124 27.3624C20.2124 24.4462 22.5849 22.0742 25.5006 22.0742C27.1238 22.0742 28.5782 22.8093 29.5485 23.9637C30.3221 24.8834 30.7888 26.0694 30.7888 27.3624C30.7888 28.6549 30.3221 29.8409 29.548 30.7606C28.5782 31.915 27.1238 32.6501 25.5006 32.6501Z" fill="#124570"/>
<path d="M28.3709 24.7842L28.074 24.5153C27.3679 23.8762 26.4535 23.5244 25.5006 23.5244C23.3844 23.5244 21.6626 25.2462 21.6626 27.3624C21.6626 29.4787 23.3844 31.1999 25.5006 31.1999C26.4535 31.1999 27.3679 30.8482 28.074 30.209L28.3709 29.9406C27.7255 29.2735 27.3284 28.3644 27.3284 27.3624C27.3284 26.3605 27.7255 25.4513 28.3709 24.7842ZM26.3649 29.4465C26.0933 29.5588 25.8001 29.6179 25.5006 29.6179C24.2566 29.6179 23.2446 28.6059 23.2446 27.3624C23.2446 26.1184 24.2566 25.1064 25.5006 25.1064C25.8001 25.1064 26.0933 25.1655 26.3649 25.2784C25.9673 25.8938 25.749 26.6173 25.749 27.3624C25.749 28.107 25.9673 28.8305 26.3649 29.4465Z" fill="#124570"/>
<path d="M29.3843 13.8213H33.3745V15.4033H29.3843V13.8213Z" fill="#124570"/>
<path d="M20.2261 13.8213H21.8199V15.4033H20.2261V13.8213Z" fill="#124570"/>
<path d="M17.6543 13.8213H19.2481V15.4033H17.6543V13.8213Z" fill="#124570"/>
</svg>
