<svg width="50" height="50" viewBox="0 0 50 50" fill="none" xmlns="http://www.w3.org/2000/svg">
<rect width="50" height="50" rx="4" fill="#EEF3F9"/>
<g clip-path="url(#clip0)">
<path d="M34.3761 26.8079C34.0706 26.8079 33.7736 26.6474 33.6128 26.3627C31.8591 23.2523 28.5591 21.3203 25.0001 21.3203C21.4412 21.3203 18.1411 23.2523 16.3873 26.3627C16.1501 26.7842 15.6161 26.9318 15.1952 26.6951C14.7744 26.4575 14.6257 25.9239 14.8628 25.5031C16.9265 21.8437 20.811 19.5703 25.0001 19.5703C29.1893 19.5703 33.0738 21.8437 35.1374 25.5031C35.3745 25.9239 35.2258 26.4575 34.805 26.6951C34.6689 26.7716 34.5217 26.8079 34.3761 26.8079Z" fill="#124570"/>
<path d="M30.6267 28.9171C30.3212 28.9171 30.0242 28.7569 29.8636 28.4721C28.8737 26.7155 27.01 25.6245 25.0007 25.6245C22.9913 25.6245 21.1277 26.7157 20.1378 28.4721C19.9006 28.8929 19.3674 29.0421 18.9457 28.8045C18.5249 28.5674 18.3762 28.0338 18.6133 27.6125C19.913 25.3071 22.3607 23.8745 25.0007 23.8745C27.6404 23.8745 30.0883 25.3071 31.3878 27.6125C31.6249 28.0338 31.4765 28.5674 31.0554 28.8045C30.9195 28.8808 30.7719 28.9171 30.6267 28.9171Z" fill="#124570"/>
<path d="M38.1264 24.6984C37.8209 24.6984 37.5238 24.5382 37.3631 24.2532C34.846 19.7889 30.1091 17.0156 25.0006 17.0156C19.892 17.0156 15.1551 19.7889 12.6378 24.2532C12.4011 24.674 11.867 24.8227 11.4457 24.5856C11.0249 24.348 10.8762 23.8144 11.1133 23.3936C13.9404 18.3803 19.2614 15.2656 25.0006 15.2656C30.7398 15.2656 36.0605 18.3803 38.8878 23.3936C39.1249 23.8144 38.9762 24.348 38.5554 24.5854C38.4195 24.6621 38.2721 24.6984 38.1264 24.6984Z" fill="#124570"/>
<path d="M27.625 32.1279C27.625 33.5776 26.4497 34.7529 25 34.7529C23.5501 34.7529 22.375 33.5776 22.375 32.1279C22.375 30.6781 23.5501 29.5029 25 29.5029C26.4497 29.5029 27.625 30.6781 27.625 32.1279Z" fill="#124570"/>
</g>
<defs>
<clipPath id="clip0">
<rect width="28" height="28" fill="white" transform="translate(11 11)"/>
</clipPath>
</defs>
</svg>
